<?xml version="1.0" encoding="UTF-8" standalone="no"?>
<!-- Created with Inkscape (http://www.inkscape.org/) -->

<svg
   xmlns:dc="http://purl.org/dc/elements/1.1/"
   xmlns:cc="http://creativecommons.org/ns#"
   xmlns:rdf="http://www.w3.org/1999/02/22-rdf-syntax-ns#"
   xmlns:svg="http://www.w3.org/2000/svg"
   xmlns="http://www.w3.org/2000/svg"
   xmlns:sodipodi="http://sodipodi.sourceforge.net/DTD/sodipodi-0.dtd"
   xmlns:inkscape="http://www.inkscape.org/namespaces/inkscape"
   id="svg2985"
   version="1.1"
   inkscape:version="0.48.4 r9939"
   width="314.59354"
   height="272.63788"
   sodipodi:docname="Blutspende_Piktogramm.GIF">
  <title
     id="title3005">Blood donation pictogram</title>
  <metadata
     id="metadata2991">
    <rdf:RDF>
      <cc:Work
         rdf:about="">
        <dc:format>image/svg+xml</dc:format>
        <dc:type
           rdf:resource="http://purl.org/dc/dcmitype/StillImage" />
        <dc:title>Blood donation pictogram</dc:title>
      </cc:Work>
    </rdf:RDF>
  </metadata>
  <defs
     id="defs2989" />
  <sodipodi:namedview
     pagecolor="#ffffff"
     bordercolor="#666666"
     borderopacity="1"
     objecttolerance="10"
     gridtolerance="10"
     guidetolerance="10"
     inkscape:pageopacity="0"
     inkscape:pageshadow="2"
     inkscape:window-width="640"
     inkscape:window-height="480"
     id="namedview2987"
     showgrid="false"
     inkscape:zoom="0.91602183"
     inkscape:cx="21.503453"
     inkscape:cy="152.43858"
     inkscape:window-x="0"
     inkscape:window-y="0"
     inkscape:window-maximized="0"
     inkscape:current-layer="svg2985"
     fit-margin-top="0"
     fit-margin-left="0"
     fit-margin-right="0"
     fit-margin-bottom="0" />
  <g
     id="g2995"
     transform="translate(-17.496547,-37.300686)">
    <path
       style="fill:#989898"
       d="m 164.5,309.05464 c -1.1,-0.45022 -2.89617,-1.81471 -3.99149,-3.03219 -1.85578,-2.06277 -2.01668,-3.94636 -2.36129,-27.64223 -0.43476,-29.89454 -0.30022,-30.53329 6.97505,-33.11724 L 170,243.53056 169.9847,222.51528 c -0.008,-11.5584 -0.44171,-21.6898 -0.96287,-22.51421 -1.19802,-1.89515 -11.49599,-2.72251 -30.52182,-2.45219 -23.32347,0.33139 -23.5,0.34466 -23.5,1.76675 0,0.7236 2.71027,7.2437 6.02282,14.48911 7.1459,15.62995 7.71177,17.87404 5.55755,22.03983 -2.91036,5.62803 -10.53191,7.78321 -16.53902,4.67681 C 106.62864,238.7566 100.4195,229.52893 92.532013,214.5 89.356851,208.45 81.132649,192.96928 74.25601,180.09839 55.287908,144.59613 55.680106,145.57403 56.183854,135.03771 56.662884,125.01839 56.804384,124.74036 68.22781,111.3728 89.245514,86.778138 98.441811,75 96.627466,75 96.422572,75 87.658387,72.075 77.1515,68.5 66.644612,64.925 57.744735,62 57.373995,62 c -0.370739,0 1.147078,1.319234 3.372928,2.931632 C 68.947876,70.872371 73,78.551459 73,88.152157 73,95.29759 70.929709,100.38557 65.387788,106.86006 59.697499,113.50788 55.052017,115.47381 45,115.488 37.511689,115.49857 35.942065,115.17202 31.812348,112.74438 26.621542,109.69299 21.090661,103.36906 18.916984,98 16.744267,92.633314 17.188612,81.356837 19.768772,76.38353 c 3.248193,-6.260952 6.537536,-9.685236 12.398509,-12.907142 4.648884,-2.555595 6.375082,-2.934391 13.461336,-2.953951 L 53.757234,60.5 48.628617,58.625533 c -2.820739,-1.030957 -6.134228,-2.790427 -7.363307,-3.909932 -5.08609,-4.632656 -3.331346,-13.285868 3.339233,-16.466845 3.509449,-1.673539 3.538569,-1.66749 21.70481,4.508627 C 76.314209,46.158811 87.425,49.935067 91,51.149063 c 3.575,1.213995 7.85,2.747867 9.5,3.408602 1.65,0.660736 6.15,2.211155 10,3.445375 9.09837,2.916726 12.14145,5.754558 13.01991,12.141744 0.89474,6.505526 -0.31602,8.892279 -11.93079,23.519045 L 102.19029,105.5 l 4.15485,0.67588 c 6.2162,1.0112 71.16489,0.96105 73.83976,-0.057 1.27331,-0.48462 7.16033,-4.52942 13.08228,-8.98844 14.56348,-10.965796 17.64017,-12.449847 24.74521,-11.935915 3.68574,0.266603 6.56951,1.118049 8.24171,2.433401 1.41472,1.112819 11.4988,10.60106 22.40906,21.084984 28.66516,27.545 22.273,24.23655 48.00617,24.84701 12.00687,0.28483 23.2212,0.73226 24.92074,0.99429 C 327.5897,135.47921 332,142.87035 332,152 c 0,6.50978 -1.37804,10.16301 -5.16863,13.70227 -4.79712,4.47905 -8.11888,5.05949 -30.33137,5.30007 -11.55,0.1251 -26.625,0.38123 -33.5,0.56919 -6.875,0.18796 -45.9125,0.36126 -86.75,0.38511 -73.91702,0.0432 -74.25,0.0525 -74.25,2.07188 0,2.85692 5.77298,13.9691 7.2644,13.98295 31.25512,0.2902 61.37696,1.72622 63.83813,3.0434 4.09241,2.1902 4.99559,6.93545 5.58055,29.31981 0.30363,11.61892 0.95553,21.62912 1.44868,22.24488 0.49314,0.61576 2.90707,1.88736 5.36429,2.82578 3.90881,1.49279 4.61017,2.22838 5.60682,5.88044 1.47309,5.3979 0.69972,50.30604 -0.91839,53.32952 -1.91528,3.57872 -7.22878,5.35082 -15.83561,5.28131 -4.31688,-0.0349 -8.74887,-0.43175 -9.84887,-0.88197 z m 19.91821,-47.66163 c 1.04636,-0.40152 1.57661,-1.84014 1.56648,-4.25 -0.0242,-5.76524 -0.88349,-6.37463 -9.11829,-6.4668 -12.27887,-0.13744 -14.86939,1.48073 -13.36146,8.34626 l 0.65397,2.97753 9.33876,0 c 5.13631,0 10.05056,-0.27314 10.92054,-0.60699 z M 220.25219,131.12173 C 221.22306,130.18452 214.66884,123 212.84297,123 210.90229,123 204,128.85658 204,130.50325 c 0,0.74671 1.0125,1.51734 2.25,1.71251 3.29338,0.51943 13.12669,-0.24888 14.00219,-1.09403 z"
       id="path3003"
       inkscape:connector-curvature="0" />
    <path
       style="fill:#656565"
       d="m 163.27684,308.09101 c -1.7731,-1.11616 -3.55525,-3.28012 -3.96132,-4.80999 -0.40598,-1.52956 -0.75556,-14.09405 -0.77683,-27.92109 -0.0436,-28.30675 -0.0644,-28.22332 7.62411,-30.52685 L 170,243.68342 170,221.8769 c 0,-21.57567 -0.0238,-21.81982 -2.25,-23.0615 -1.57679,-0.87947 -8.98212,-1.33 -24.75,-1.50576 -24.1459,-0.26914 -28,0.0679 -28,2.44839 0,0.83868 1.84795,5.39872 4.10655,10.13342 6.29167,13.18922 8.98949,20.8777 8.29574,23.64183 C 126.36643,237.66046 120.5223,242 116,242 108.82831,242 103.57879,235.32055 89.278689,208 83.33919,196.6525 79.58262,189.59646 68.515463,169 57.892389,149.23 56.585725,146.02499 56.161958,138.69914 55.584338,128.71357 57.216189,124.24678 64.363891,116.2484 67.738751,112.47188 73.875,105.18736 78,100.06057 82.125,94.933776 88.364017,87.399342 91.864482,83.31738 c 3.500466,-4.081962 6.200466,-7.579205 6,-7.771652 C 97.664017,75.353281 94.8,74.285902 91.5,73.173775 72.515087,66.775704 44.832198,56.980562 43.070781,56.037881 40.233344,54.51933 38.19592,50.083922 38.689515,46.5 c 0.569878,-4.1378 5.200612,-8.60221 9.035796,-8.711253 2.420798,-0.06883 41.730413,12.748316 67.109349,21.88142 4.67209,1.681343 7.71963,5.502705 8.75451,10.977449 C 124.46537,75.28287 121.51608,80.826798 111.16604,94 l -9.03543,11.5 4.18469,0.67588 c 2.30159,0.37173 19.7097,0.70755 38.6847,0.74626 39.41103,0.0804 34.04343,1.23993 50,-10.801133 14.75403,-11.133608 20.40966,-13.065814 28.43234,-9.713723 1.85246,0.774007 12.69288,10.467958 24.08982,21.542116 11.39694,11.07415 22.29381,21.33392 24.21525,22.79948 l 3.49354,2.66465 21.63453,0.32608 c 25.43834,0.38341 27.15246,0.58613 29.92686,3.53935 5.68315,6.04943 7.05816,18.53351 2.74105,24.88671 -4.21233,6.199 -7.57057,7.56103 -20.53339,8.32791 -6.325,0.37419 -52.225,0.74626 -102,0.82683 -49.775,0.0806 -93.81505,0.30542 -97.86678,0.49967 l -7.36679,0.35319 0.56623,3.48924 c 0.87544,5.39471 5.17625,12.01046 8.18128,12.58491 1.41509,0.27051 11.89085,0.55386 23.27947,0.62967 35.71112,0.23772 41.13707,1.16481 43.04922,7.35552 0.55507,1.79706 1.21325,12.62195 1.46262,24.05531 0.49626,22.75287 0.80582,23.91865 6.69475,25.21208 1.53594,0.33735 3.62678,1.53729 4.64631,2.66654 1.71075,1.89484 1.84158,3.99182 1.69668,27.19332 -0.0921,14.74937 -0.59032,26.25514 -1.20537,27.83784 -1.76902,4.55218 -5.44603,6.1588 -15.01441,6.56038 -7.33498,0.30784 -9.10472,0.0588 -11.84637,-1.66707 z M 185.5,256.56357 c 0,-4.79949 -0.0971,-4.96199 -3.5,-5.85771 -4.22857,-1.11305 -15.68894,-0.20891 -17.61516,1.38971 -1.43933,1.19455 -1.83897,5.55741 -0.76533,8.35526 0.52628,1.37148 2.21916,1.57188 11.25,1.33179 L 185.5,261.5 l 0,-4.93643 z M 216.36043,132.36408 C 218.91219,132.01432 221,131.37384 221,130.9408 c 0,-1.19694 -4.98235,-6.86098 -6.97182,-7.92572 -1.35747,-0.72649 -2.69496,-0.1362 -5.89214,2.60047 -7.31365,6.26022 -4.57974,8.50353 8.22439,6.74853 z M 36.702676,114.55768 C 23.021726,109.67756 15.250902,96.491505 18.071472,82.942991 21.23651,67.73983 35.660341,57.919299 50.346789,60.968194 64.003796,63.803377 73,74.920709 73,88.962587 c 0,5.431043 -3.284583,12.673333 -8.523564,18.793903 -6.085763,7.10985 -18.4325,10.13329 -27.77376,6.80119 z"
       id="path3001"
       inkscape:connector-curvature="0" />
    <path
       style="fill:#323232"
       d="m 164.32874,308.60981 c -1.7442,-0.79588 -3.63461,-2.31282 -4.20092,-3.37098 -1.31058,-2.44884 -2.51606,-46.24795 -1.43777,-52.23883 0.7533,-4.18528 1.17688,-4.67485 6.05639,-7 l 5.24645,-2.5 0.14483,-12.5 c 0.28429,-24.53437 -0.0162,-30.30693 -1.66312,-31.955 -1.31289,-1.31376 -5.41736,-1.545 -27.42365,-1.545 -14.23383,0 -26.16309,0.28238 -26.50948,0.6275 -0.3464,0.34513 2.31507,7.20147 5.91436,15.23631 7.34412,16.39457 7.90746,19.86257 3.98389,24.52546 -5.08831,6.04712 -12.87688,5.07494 -18.97634,-2.36865 C 102.2562,231.60668 71.928904,175.92584 60.789779,153.5 c -4.95176,-9.96913 -4.965654,-10.02489 -4.500756,-18.06312 0.54621,-9.44416 1.887289,-12.45585 9.029943,-20.27876 C 68.168535,112.03716 74.325,104.80867 79,99.09481 83.675,93.380948 89.925465,85.835092 92.889922,82.326241 95.854379,78.817389 98.020942,75.687609 97.704506,75.371173 97.38807,75.054736 85.512605,70.854234 71.314584,66.036724 42.272112,56.182363 39,54.311889 39,47.564373 39,42.802606 43.413534,38 47.789538,38 c 3.887385,0 66.335692,21.177646 70.931212,24.054395 2.23794,1.400927 3.59214,4.054794 4.74097,9.291043 0.91158,4.154861 -2.02563,9.437977 -12.50723,22.496588 -5.00707,6.238114 -8.80822,11.638114 -8.447,12.000004 0.8163,0.8178 74.97596,1.50443 78.08938,0.72301 1.2448,-0.31242 2.85724,-1.15003 3.5832,-1.86136 0.72596,-0.71132 5.31533,-4.3324 10.1986,-8.04685 14.77301,-11.237057 21.21269,-13.525716 28.95526,-10.290666 1.79833,0.751389 13.08458,10.899237 25.08055,22.550776 11.99598,11.65153 22.97736,21.94926 24.40308,22.88383 2.19092,1.43618 6.23706,1.7771 26.13732,2.20228 26.62588,0.56886 27.03366,0.67924 30.86702,8.3548 4.57707,9.16468 2.05257,19.76541 -6.00024,25.19587 L 319.5,170.46806 242,170.74143 c -125.13605,0.4414 -138.77052,0.62727 -140.05152,1.90923 -0.86648,0.86713 -0.48119,2.64052 1.5637,7.19713 1.49242,3.32555 3.45728,6.71958 4.36635,7.54228 1.34983,1.22158 5.86666,1.53694 24.63716,1.72016 31.74082,0.30982 38.85676,0.95159 41.86265,3.77547 3.1055,2.91747 3.52657,6.06551 3.67372,27.4658 0.0675,9.81833 0.55961,19.10469 1.09356,20.63637 0.69783,2.00182 2.22297,3.26308 5.42401,4.48557 2.44926,0.93538 4.92075,2.57433 5.49221,3.64211 1.31437,2.45591 1.28637,50.83838 -0.0314,54.30443 -1.58297,4.16354 -5.25107,5.7617 -14.27308,6.21865 -5.84394,0.29599 -9.18422,-0.005 -11.4286,-1.02882 z m 21.45008,-48.4088 c 1.57169,-2.04275 0.67031,-7.20327 -1.56346,-8.95101 -2.0903,-1.63548 -14.9479,-1.6074 -18.21536,0.0398 -2.62903,1.32534 -3.56388,4.3274 -2.57478,8.2683 0.54331,2.16473 1.17504,2.37832 7.83288,2.64828 9.81639,0.39804 13.01099,-0.0431 14.52072,-2.00534 z M 217.875,132.375 C 219.59375,132.03125 221,131.18361 221,130.49136 221,129.32653 213.64426,122 212.47478,122 c -0.28571,0 -2.53868,1.86125 -5.00661,4.13611 -3.53051,3.25431 -4.24582,4.42688 -3.35521,5.5 1.19675,1.44199 8.33125,1.82505 13.76204,0.73889 z M 35.328895,113.96929 C 21.62979,108.53796 14.770754,93.5103 19.21714,78.669586 21.056549,72.530188 30.161079,63.736503 36.5,61.976796 50.240377,58.162418 62.934513,63.232098 69.55104,75.17645 72.091679,79.762886 72.496506,81.538471 72.474767,88 c -0.02306,6.854033 -0.341883,8.021193 -3.701701,13.5513 -2.022058,3.32822 -4.485703,6.77227 -5.474768,7.65344 -6.972384,6.2118 -19.105842,8.27872 -27.969403,4.76455 z"
       id="path2999"
       inkscape:connector-curvature="0" />
    <path
       style="fill:#000000"
       d="m 164.49899,308.18167 c -1.9204,-0.76595 -3.77445,-2.44913 -4.4081,-4.00183 -0.6628,-1.62413 -1.19158,-12.37009 -1.34226,-27.27782 -0.2795,-27.65241 -0.006,-29.02998 6.15619,-30.99637 1.97735,-0.63099 3.96696,-1.48718 4.42137,-1.90264 1.16769,-1.06762 1.69455,-38.84897 0.59435,-42.62127 -0.75546,-2.59028 -1.54533,-3.22336 -4.66499,-3.73899 -5.87033,-0.97028 -48.58651,-0.71909 -50.18928,0.29513 -1.19822,0.75823 -0.92225,2.02874 1.68007,7.73469 1.71258,3.75509 4.54173,9.97743 6.28698,13.82743 1.74525,3.85 3.3881,8.35 3.65076,10 1.48609,9.33516 -8.94465,15.49064 -17.14485,10.11766 C 106.03484,237.3215 101.23568,229.64285 89.778184,208 87.303288,203.325 83.015637,195.225 80.250071,190 77.484505,184.775 72.896987,176.225 70.055586,171 57.588396,148.07431 56.546081,145.3939 56.646704,136.51782 c 0.110248,-9.72509 1.750738,-13.4795 9.500595,-21.74296 2.943986,-3.13909 8.368474,-9.43943 12.054419,-14.00076 3.685944,-4.561331 7.541076,-9.194273 8.566959,-10.295429 1.025882,-1.101155 2.285109,-2.74577 2.798282,-3.654699 C 90.080132,85.915044 92.4125,83.134249 94.75,80.644428 97.0875,78.154608 99,75.903254 99,75.64142 99,75.379586 93.9375,73.492915 87.75,71.448818 81.5625,69.404721 76.05,67.412342 75.5,67.02131 74.95,66.630278 72.25,65.724174 69.5,65.007746 66.75,64.291318 64.0725,63.321491 63.55,62.852575 63.0275,62.383659 61.655,62 60.5,62 59.345,62 57.9725,61.620572 57.45,61.156827 56.9275,60.693082 54.025,59.548315 51,58.612901 43.213348,56.205053 39,52.198053 39,47.2006 c 0,-2.576073 3.676074,-7.126945 6.67929,-8.268766 2.506709,-0.953049 8.580135,0.004 13.939282,2.196604 1.584785,0.648381 3.331428,1.315847 3.881428,1.483258 0.55,0.167411 12.614649,4.287851 26.810331,9.156533 27.900509,9.569018 31.051709,11.314227 32.283319,17.879266 0.90414,4.819496 -1.0417,10.725312 -4.99643,15.164673 -1.80689,2.028307 -3.69294,4.415116 -4.19123,5.304019 -0.4983,0.888903 -2.36571,3.363903 -4.14981,5.5 -1.7841,2.136097 -4.36001,5.285003 -5.72425,6.997573 l -2.48044,3.11376 5.22426,0.62755 c 10.07274,1.20996 74.06105,0.67239 76.24013,-0.64051 1.10873,-0.66801 6.38132,-4.48814 11.71685,-8.489179 C 205.22379,88.983348 212.50495,85 216.5795,85 c 5.86836,0 11.40462,4.251433 33.72669,25.89958 16.30224,15.81008 23.3229,21.97624 25.52254,22.41617 1.66888,0.33377 11.50263,0.66839 21.85279,0.7436 24.7503,0.17984 25.92551,0.4033 29.96342,5.69734 5.65639,7.41603 5.72284,17.47697 0.15729,23.81577 -6.48525,7.38629 2.50061,6.82302 -114.30223,7.16497 -57.75,0.16906 -106.48615,0.54713 -108.30256,0.84015 -1.8164,0.29302 -3.53856,1.14778 -3.82701,1.89947 -0.66495,1.73284 5.15693,14.43589 6.85797,14.96371 0.69938,0.21701 13.90981,0.65301 29.35652,0.96889 28.45642,0.58191 33.83232,1.01768 36.26926,2.93997 2.83124,2.23332 3.49804,6.78679 4.06335,27.74788 0.40277,14.93447 0.96444,22.05738 1.82059,23.08815 0.68097,0.81986 3.06379,2.03764 5.29516,2.70618 2.89907,0.86858 4.34995,1.9851 5.0833,3.91184 0.63753,1.675 0.90451,12.4401 0.70484,28.42014 -0.39199,31.37174 0.28486,29.87478 -13.89457,30.73011 -6.36898,0.38419 -10.11152,0.15164 -12.42786,-0.77225 z M 186.07853,261 c 1.31745,-1.96919 0.4411,-9.05494 -1.2527,-10.12881 -0.72921,-0.46231 -5.18489,-0.84746 -9.90152,-0.85588 -7.62832,-0.0136 -8.80276,0.23325 -10.63127,2.23469 -1.89439,2.07356 -2.16501,4.79421 -0.83874,8.43237 0.90009,2.46908 20.99609,2.75122 22.62423,0.31763 z m 34.17409,-128.83429 c 1.61339,-0.63861 1.56364,-0.97184 -0.6262,-4.19448 -1.30836,-1.92542 -3.5421,-4.12333 -4.96388,-4.88424 -2.36624,-1.26638 -2.88344,-1.15588 -6.11036,1.30542 -3.88906,2.96632 -5.97199,6.1193 -5.03941,7.62826 0.6806,1.10122 14.03189,1.2169 16.73985,0.14504 z M 38.733404,114.96663 C 31.783679,113.22805 24.28149,107.21647 20.67968,100.5 19.000087,97.367983 18.530862,94.748931 18.517309,88.430399 c -0.02081,-9.702357 2.564523,-15.724705 9.022019,-21.016138 5.779975,-4.736255 10.416045,-6.415786 17.678553,-6.404492 8.004659,0.01245 14.792759,3.064738 20.399827,9.172845 5.073124,5.526451 6.828021,10.384185 6.798569,18.819143 -0.02108,6.037047 -0.357008,7.013883 -4.699989,13.666913 -3.863542,5.91857 -5.604607,7.61885 -10.007382,9.77292 -6.011722,2.94127 -13.388076,3.92282 -18.975502,2.52504 z"
       id="path2997"
       inkscape:connector-curvature="0" />
  </g>
</svg>
