<svg xmlns="http://www.w3.org/2000/svg" xmlns:xlink="http://www.w3.org/1999/xlink" width="941.5" height="937.5" xmlns:v="https://vecta.io/nano"><style><![CDATA[.B{fill-rule:evenodd}.C{fill:#d7e3f4}.D{fill:#55d400}.E{fill:#214478}.F{fill:#b7c8c4}.G{stroke:#214478}.H{stroke-width:.2}]]></style><g stroke="#162d50"><path d="M651.737 26.469c-3.515.034-4.503.335-5.709 1.427-.887.804-2.639 1.808-3.893 2.227-3.881 1.298-6.313 3.54-8.434 7.742-1.122 2.222-2.747 4.551-3.611 5.169-1.501 1.071-1.528 1.154-.324 2.054s1.209 1.03.043 3.244c-.824 1.564-1.176 3.604-1.081 6.315.077 2.202-.176 4.598-.562 5.32-1.127 2.106.104 6.444 2.098 7.396 6.904 3.298 6.659 3.058 8.499 7.785 1.577 4.051 1.719 5.068 1.211 9.126-1.081 8.642-3.695 10.754-15.398 12.413-6.958.987-13.415 5.121-16.09 10.294-3.478 6.725-5.924 25.658-5.925 45.933-.001 12.545-.221 15.468-1.73 23.053-2.691 13.523-3.134 19.518-3.071 41.63.056 19.555-.024 21.057-1.752 29.822-1.146 5.813-1.591 9.526-1.189 10.034.351.444.996 1.901 1.427 3.244 1.353 4.206 4.47 7.262 9.45 9.256 2.506 1.003 4.866 1.691 5.19 1.449.508-.379.194-9.871-2.461-10.031-.844-.051 3.032.702 2.632-1.227-1.079-5.213-.908-11.202-1.598-14.52-1.126-5.414-1.211-7.299-.627-12.11 1.063-8.764 3.186-20.272 5.493-29.692 1.476-6.029 2.203-10.987 2.465-16.846.205-4.567 1.045-12.041 1.881-16.609 1.443-7.883 1.545-8.146 1.99-5.19.258 1.713.491 5.029.519 7.374s.532 6.705 1.103 9.688c1.608 8.404 1.386 11.045-1.384 16.544-2.935 5.826-4.051 9.525-6.682 22.101-2.749 13.137-3.047 19.554-1.665 35.985 1.747 20.777 2.646 25.466 8.78 45.847 5.484 18.221 5.713 20.233 5.752 48.615 0 0-.999 16.904.043 25.259.545 4.367 3.222 12.802 3.222 12.802 4.14 16.393 5.247 22.308 5.666 30.579l.324 6.704-3.287 5.06c-1.808 2.784-3.647 5.749-4.087 6.574-1.142 2.139-.236 5.517 1.946 7.353 1.709 1.438 2.524 1.568 9.645 1.535l7.807-.022 2.011-2.249c1.676-1.876 2.002-2.868 2.011-5.882.003-.856.078-1.722.173-2.487v-11.786c-.054-.122-.118-.244-.173-.389-.418-1.1-.568-2.839-.346-3.849.23-1.046-.391-4.784-1.427-8.694-2.023-7.636-2.007-10.048.022-30.406 1.843-18.501 2.067-30.173.779-39.553-.959-6.982-1.027-9.212-.346-13.148.542-3.133.774-12.245.67-26.881-.166-23.408.51-48.788 1.298-48.788 1.077 0 2.289 34.26 1.795 50.777-.351 11.735-.255 18.777.324 23.377.695 5.524.649 8.195-.303 16.565-1.224 10.772-.955 19.313 1.406 43.187 1.226 12.396 1.025 20.625-.649 25.259-.619 1.713-1.135 5.138-1.146 7.612-.681 5.781-.585 11.487-.714 17.149.015 5.087 1.459 8.174 4.498 9.623 2.011.959 2.888 1.057 4.541.433 1.154-.436 2.208-.52 2.422-.173.209.338 2.202.505 4.433.368 5.018-.308 7.403-1.89 8.002-5.32.381-2.184-.034-3.219-3.417-8.607-2.117-3.371-3.865-6.61-3.893-7.201-.428-9.093.55-15.567 5.579-36.72 4.09-17.203 4.59-23.062 3.46-41.002-.672-10.668-.692-14.79-.022-19.636 1.353-9.779 3.182-17.913 6.228-27.811 3.576-11.619 5.991-21.739 6.877-28.849 1.508-12.099 2.316-26.587 1.925-34.536-.536-10.884-4.228-27.919-7.764-35.855-4.057-9.106-4.186-9.901-2.898-17.257.623-3.558 1.346-10.359 1.622-15.116l.497-8.65 1.276 5.882c.696 3.235 1.729 11.626 2.292 18.641.726 9.035 1.625 15.192 3.092 21.107 4.083 16.461 6.429 34.141 4.909 36.98-1.076 2.01-3.078 25.617-2.336 27.551.503 1.31 1.1 1.192 6.769-1.427 5.074-2.345 5.09-2.366 7.656-7.699 1.232-5.372 1.586-9.86.973-13.386-1.425-7.199-1.647-10.891-2.076-34.709-.463-25.688-.546-26.941-2.379-34.947-1.734-7.576-1.956-10.094-2.465-28.719-.702-25.687-2.561-37.816-6.855-44.787-1.78-2.889-7.828-6.867-11.786-7.742l-8.434-1.795c-6.104-1.288-8.375-2.979-9.494-7.007-1.067-3.842-.925-10.144.281-12.456.569-1.09 1.036-2.495 1.038-3.114.006-1.663 1.357-2.499 4.909-3.028 5.004-.745 4.954-.653 4.974-9.494.01-4.36-.16-8.219-.368-8.564s-.867-2.558-1.471-4.931c-2.378-9.351-6.447-15.242-12.694-18.317-3.929-1.934-5.227-2.214-10.251-2.249a105.97 105.97 0 0 0-1.665 0h0z" class="C"/><path d="M461.104 446.775c-.267-.267-2.602-.441-5.19-.388-5.54.114-10.096-1.827-11.219-4.782-.983-2.585.877-6.291 4.749-9.463 1.691-1.386 4.001-3.977 5.132-5.759 1.955-3.079 2.054-3.632 1.995-11.158-.065-8.359-.498-10.384-6.529-30.594l-2.686-8.998-.08-22.675c-.066-18.554-.285-23.273-1.208-25.965-.62-1.809-1.351-5.858-1.623-8.998s-1.438-9.11-2.59-13.268c-5.208-18.794-6.86-39.973-4.718-60.468.641-6.137 1.106-14.559 1.033-18.716-.127-7.196 1.419-17.579 3.751-25.195.915-2.988-.234-24.629-1.859-35.002-.566-3.612-1.028-7.958-1.028-9.658 0-4.873-.709-2.928-1.884 5.169-.711 4.901-.926 9.61-.627 13.736.674 9.28-.579 15.715-5.926 30.435-5.313 14.626-6.674 19.633-5.886 21.645.299.765.566 2.362.593 3.55s.591 4.393 1.253 7.124c1.058 4.362 1.093 5.753.284 11.47-1.356 9.58-3.825 17.759-5.36 17.759-.452 0-1.142.729-1.532 1.62s-1.439 1.723-2.33 1.85-1.62.531-1.62.9c0 1.071-2.617.773-3.599-.41-.493-.594-1.479-1.08-2.192-1.08-1.584 0-2.542-2.7-3.574-10.065-.877-6.26-2.128-10.811-2.971-10.811-.325 0-1.211 1.215-1.969 2.699-2.703 5.295-6.687 6.939-7.15 2.951-.375-3.229 4.44-14.326 9.036-20.825l4.287-6.061 1.155-8.638c.635-4.751 1.327-14.698 1.536-22.104.386-13.644 1.172-21.042 2.93-27.566.534-1.98 1.172-7.487 1.418-12.238s1.095-12.591 1.885-17.423 1.552-12.606 1.692-17.277c.425-14.123 3.461-24.777 8.572-30.077 2.471-2.563 3.722-3.244 7.301-3.976 2.376-.486 6.587-2.117 9.358-3.626s7.145-3.44 9.718-4.294c5.703-1.891 7.493-3.46 8.647-7.583 1.362-4.865-.036-16.314-2.293-18.779-.772-.843-1.864-3.062-2.427-4.931-1.426-4.74-2.747-18.685-1.923-20.309.363-.716 1.088-3.407 1.61-5.98.859-4.23 1.351-5.077 5.13-8.833 2.752-2.735 4.984-4.306 6.535-4.6 1.296-.246 2.744-.75 3.218-1.122 1.079-.846 13.895.084 13.895 1.008 0 .365 1.134 1.137 2.519 1.716s2.519 1.333 2.519 1.676.94 1.012 2.088 1.488c3.409 1.412 5.289 4.047 6.617 9.278 2.574 10.135 1.583 24.831-2.033 30.16-2.679 3.948-4.049 10.163-3.457 15.689.698 6.517 2.466 8.844 8.308 10.934 2.57.919 7.125 2.924 10.122 4.455s7.228 3.153 9.402 3.604c5.197 1.079 8.64 3.992 11.369 9.619 2.829 5.833 5.092 17.289 5.102 25.822.005 3.699.627 10.289 1.384 14.644s1.589 12.13 1.85 17.277.928 11.226 1.484 13.509c1.87 7.685 2.489 13.356 3.214 29.473.397 8.826 1.175 19.013 1.727 22.638.936 6.139 1.281 6.985 5.016 12.316 4.88 6.964 8.466 15.113 8.608 19.562.091 2.852-.098 3.311-1.447 3.503-1.071.153-2.131-.538-3.419-2.228-1.027-1.347-1.868-2.783-1.868-3.192s-.481-1.143-1.068-1.63c-1.455-1.207-2.292 1.104-3.951 10.907-1.43 8.446-1.723 9.239-3.425 9.239-.638 0-1.733.518-2.433 1.151-1.168 1.057-1.512 1.046-4.191-.136-1.605-.708-3.105-1.874-3.332-2.591s-.846-1.304-1.375-1.304c-1.154 0-3.404-7.135-5.107-16.197-1.262-6.715-1.012-9.772 1.884-23.086.778-3.575.403-5.05-5.159-20.33-5.723-15.722-6.373-18.799-6.386-30.231-.012-10.687-1.348-23.769-2.278-22.303-.324.511-.595 1.997-.601 3.302s-.48 5.516-1.054 9.358-1.354 12.169-1.734 18.504c-.653 10.879-.598 11.917.989 18.716 2.495 10.693 3.472 18.646 2.992 24.372-.247 2.942.049 9.389.698 15.203 2.254 20.211.281 45.494-4.804 61.564-.814 2.573-1.782 7.679-2.151 11.346s-1.228 8.526-1.91 10.798c-1.051 3.501-1.25 7.537-1.304 26.447-.062 21.84-.103 22.446-1.922 28.434-6.1 20.084-7.172 24.772-7.409 32.394-.225 7.234-.145 7.719 1.87 11.294 1.158 2.055 3.672 5.047 5.586 6.649 4.106 3.437 5.667 6.52 4.547 8.978-.939 2.061-6.057 4.81-8.661 4.651-1.068-.065-4.736.128-8.152.429l-6.211.547-2.908-2.627c-2.743-2.479-2.906-2.853-2.872-6.605.02-2.188-.331-4.345-.779-4.793-1.474-1.474-.581-12.973 1.76-22.65.917-3.791.962-6.192.291-15.477-.437-6.045-1.26-14.484-1.83-18.753-1.438-10.781-1.312-15.606.82-31.206 2.134-15.616 2.109-16.613-1.043-41.655-1.246-9.898-2.68-23.341-3.187-29.874l-.922-11.878-.553 9.358c-.585 9.906-3.355 35.392-5.154 47.42-1.422 9.508-1.379 11.068.726 26.366 1.938 14.085 2.234 22.819 1.027 30.234-.419 2.573-1.193 10.441-1.721 17.484-.824 11.003-.813 13.434.078 17.277 1.863 8.032 2.78 20.459 1.726 23.376-.51 1.411-.9 3.944-.866 5.629.054 2.691-.285 3.376-2.793 5.642-2.348 2.122-3.406 2.578-5.971 2.578-1.715 0-3.335-.218-3.602-.485z" class="E"/><path d="M477.616 255.884l.428 6 .906 11.875c.507 6.533 1.942 19.977 3.188 29.875 3.152 25.042 3.196 26.04 1.063 41.656-2.131 15.6-2.282 20.438-.844 31.219.57 4.27 1.407 12.705 1.844 18.75.671 9.285.636 11.678-.281 15.469-2.341 9.677-3.255 21.182-1.781 22.656.448.448.801 2.593.781 4.781-.034 3.753.132 4.146 2.875 6.625l2.906 2.625 6.219-.562c3.416-.301 7.089-.471 8.156-.406 2.604.158 7.717-2.595 8.656-4.656 1.12-2.458-.426-5.563-4.531-9-1.914-1.603-4.436-4.57-5.594-6.625-2.015-3.575-2.1-4.078-1.875-11.312.237-7.622 1.307-12.291 7.406-32.375 1.819-5.988 1.875-6.597 1.938-28.437.054-18.91.231-22.968 1.281-26.469.682-2.272 1.537-7.115 1.906-10.781s1.342-8.77 2.156-11.344c5.085-16.07 7.067-41.352 4.813-61.562-.648-5.814-.934-12.277-.687-15.219.48-5.726-.505-13.682-3-24.375-1.587-6.8-1.653-7.839-1-18.719.38-6.335 1.177-14.658 1.75-18.5s1.025-8.039 1.031-9.344.301-2.801.625-3.312c.93-1.466 2.269 11.625 2.281 22.313.013 11.433.652 14.496 6.375 30.219 5.562 15.28 5.934 16.769 5.156 20.344-2.896 13.314-3.137 16.379-1.875 23.094 1.703 9.062 3.939 16.188 5.094 16.188.529 0 1.147.596 1.375 1.313s1.739 1.886 3.344 2.594c2.679 1.182 3.02 1.182 4.188.125.7-.633 1.799-1.156 2.438-1.156 1.702 0 1.977-.804 3.406-9.25 1.659-9.804 2.514-12.114 3.969-10.906.587.487 1.063 1.247 1.063 1.656s.848 1.841 1.875 3.188c1.289 1.69 2.336 2.371 3.406 2.219 1.348-.192 1.529-.648 1.438-3.5-.142-4.449-3.714-12.598-8.594-19.562-3.736-5.331-4.095-6.174-5.031-12.312-.553-3.625-1.321-13.831-1.719-22.656-.726-16.118-1.348-21.784-3.219-29.469-.556-2.283-1.208-8.353-1.469-13.5s-1.087-12.926-1.844-17.281-1.401-10.957-1.406-14.656c-.009-8.533-2.265-19.979-5.094-25.812-2.729-5.627-6.178-8.546-11.375-9.625-2.174-.451-6.409-2.063-9.406-3.594s-7.523-3.549-10.094-4.469c-5.842-2.09-7.615-4.389-8.312-10.906-.592-5.526.758-11.739 3.438-15.687 3.616-5.329 4.605-20.052 2.031-30.187-1.328-5.231-3.185-7.838-6.594-9.25-1.149-.476-2.094-1.157-2.094-1.5s-1.146-1.109-2.531-1.687-2.5-1.354-2.5-1.719c0-.572-4.056-1.127-8.053-1.281" class="C"/><path d="M651.659 317.634l.06-15.776c-.166-23.408.512-48.808 1.3-48.808 1.077 0 2.307 34.255 1.813 50.772-.351 11.735-.277 18.791.302 23.391.695 5.524.649 8.191-.302 16.561-1.224 10.772-.941 19.313 1.42 43.187 1.226 12.396 1.009 20.631-.665 25.265-.619 1.713-1.137 5.142-1.148 7.616-.681 5.781-.566 11.474-.695 17.136.015 5.087 1.464 8.192 4.503 9.641 2.011.959 2.88 1.047 4.533.423 1.154-.436 2.204-.528 2.418-.181.209.338 2.211.5 4.443.363 5.018-.308 7.41-1.889 8.009-5.319.381-2.184-.062-3.195-3.445-8.583-2.117-3.371-3.841-6.632-3.868-7.223-.428-9.093.531-15.566 5.561-36.719 4.09-17.203 4.605-23.07 3.475-41.011-.672-10.668-.701-14.768-.03-19.614 1.353-9.779 3.179-17.906 6.226-27.804 3.576-11.619 6.005-21.752 6.891-28.862 1.508-12.099 2.295-26.594 1.904-34.543-.536-10.884-4.201-27.906-7.737-35.843-4.057-9.106-4.189-9.9-2.901-17.257.623-3.558 1.326-10.353 1.602-15.111l.514-8.674 1.269 5.893c.696 3.235 1.733 11.631 2.297 18.647.726 9.035 1.615 15.179 3.083 21.095 4.083 16.461 6.446 34.152 4.926 36.991-1.076 2.01-3.1 25.598-2.357 27.532.503 1.31 1.101 1.199 6.77-1.42 5.074-2.345 5.111-2.374 7.676-7.707 1.232-5.372 1.58-9.831.967-13.358-1.425-7.199-1.656-10.906-2.085-34.725-.463-25.688-.555-26.93-2.388-34.936-1.734-7.576-1.939-10.116-2.448-28.741-.702-25.687-2.566-37.817-6.86-44.788-1.78-2.889-7.829-6.862-11.786-7.737l-8.432-1.783c-6.104-1.288-8.371-2.983-9.49-7.011-1.067-3.842-.934-10.139.272-12.451.569-1.09 1.025-2.493 1.028-3.113.006-1.663 1.374-2.493 4.926-3.022 5.004-.745 4.936-.649 4.956-9.49.01-4.36-.155-8.238-.363-8.583s-.847-2.553-1.451-4.926c-2.378-9.351-6.446-15.239-12.693-18.314-3.929-1.934-5.252-2.232-10.275-2.267a105.59 105.59 0 0 0-1.662 0c-.024 0-.037 0-.06 0h0m0 317.659v25.416c.751-10.706.726-18.696 0-25.416zm0 72.502v26.565c.571-1.058.72-2.162.725-4.14.003-.856.057-1.713.151-2.478v-11.786c-.054-.122-.096-.247-.151-.393-.418-1.1-.585-2.828-.363-3.838.129-.588-.031-2.085-.363-3.929z" class="D"/><path d="M825.75 549.751l-2.594.063c-5.905.225-8.432.744-9.594 1.906a18.33 18.33 0 0 1-1.719 1.469c-3.551 2.626-7.031 9.385-7.25 14.094-.081 1.746-.335 3.633-.562 4.188s-.241 1.704-.031 2.563.573 2.588.813 3.844c.509 2.67 1.464 4.645 2.594 5.281 1.958 1.103 1.584 3.18-1.562 8.438-3.339 5.579-4.25 7.719-3.281 7.719.335 0 .594 1.006.594 2.25 0 2.184-.063 2.285-2.406 2.875-6.399 1.611-9.85 4.11-11.75 8.563-2.745 6.433-5.547 25.218-6.687 44.813-.201 3.454-.99 9.357-1.781 13.125-1.336 6.359-1.492 8.474-1.906 29.406-.391 19.725-.602 23.323-1.687 28.719l-1.219 6.188 1.188 3.188c1.732 4.63 3.098 6.281 6.875 8.188 3.549 1.791 5.995 2.153 6.406.969.564-1.625-.331-15.95-1.312-21-.891-4.585-.985-6.374-.531-11.406.699-7.754 2.182-17.947 2.844-19.687.925-2.434 2.76-13.013 3.125-18 .465-6.36 3.113-20.605 2.625-14.719-.038.457.683 3.329 1.063 6.469l1.156 9.125c.326 2.483.211 4.063-.375 5.719-3.726 10.525-6.4 23.869-6.844 33.969-.477 10.852 1.444 31.96 4.063 44.406.481 2.284 1.953 10.364 3.25 17.969 2.551 14.948 2.582 15.82 2.188 38.938-.218 12.777-.164 13.33 1.375 19.719 3.477 14.431 5.06 22.833 5.5 29.094l.469 6.563-3.094 5.531c-3.504 6.248-3.78 8.127-1.625 10.688 1.176 1.397 1.951 1.735 4.125 1.875 5.46.352 10.132.129 11.375-.562.703-.391 1.713-1.521 2.219-2.5l.906-1.781.844 1.781c1.154 2.383 3.718 3.43 7.906 3.25l5.719-.219c1.601-.044 2.75-.517 3.844-1.531 2.51-2.328 2.179-4.86-1.5-11.219l-3.094-5.312.469-6.281c.429-5.882 1.777-13.086 5.438-28.812 1.654-7.109 1.993-14.896 1.438-35.125-.23-8.378-.126-10.001 1.563-19.687l4.094-21.687c3.893-19.328 5.616-37.197 4.594-47.906-.881-9.228-3.17-20.395-5.5-26.812-2.199-6.059-2.317-7.628-1.375-17.5.947-9.932 1.305-10.564 2.469-4.219.541 2.947 1.236 7.954 1.563 11.094s1.244 8.515 2.031 11.969c3.487 15.308 4.845 29.425 3.438 35.656-.504 2.232-1.069 8.299-1.281 13.469l-.406 9.406h1.438c2.021 0 7.353-2.481 8.813-4.094 1.421-1.571 2.567-3.825 3.594-7.094.639-2.034.582-3.137-.5-8.562-1.056-5.296-1.318-9.344-1.75-27.062-.499-20.444-.655-22.723-2.469-34.844-.493-3.297-1.293-11.623-1.781-18.531-1.146-16.199-2.302-25.02-4.062-31.406-1.291-4.683-1.686-5.415-4.406-8.062-2.988-2.908-8.008-5.375-10.937-5.375-1.083 0-1.415-.38-1.719-2-.207-1.104-.21-2.242-.031-2.531s-.183-1.801-.781-3.375-.954-2.983-.812-3.125-.419-1.611-1.25-3.25c-1.459-2.88-1.598-5.687-.281-5.687.949 0 2.451-2.861 2.969-5.625l.844-4.25c.222-1.077-.015-1.944-.687-2.687-.743-.821-1.009-2.25-1.094-5.594-.135-5.339-1.439-8.466-5.125-12.312-2.52-2.631-3.746-3.19-9.156-3.094zm-13.687 38.781c.325-.049.743.181 1.25.688 1.239 1.239 1.183 7.499-.094 9.969-.519 1.004-1.166 1.813-1.437 1.813-.606 0-1.17-4.204-.594-4.437.228-.092.284-1.797.125-3.781-.217-2.702.035-4.143.75-4.25zm21.438 0c.102-.026.197-.022.25.031.213.213.136 2.796-.156 5.719l-.531 5.313-.969-2.125c-1.269-2.808-1.203-6.105.156-7.875.45-.585.945-.985 1.25-1.062zm-10.97 144.938c.427 0 .625 8.586.625 28.438 0 15.784.243 30.464.563 32.969.496 3.889.081 11.083-.531 14.125v17.625c.156 2.91.607 8.672 1.156 14.438 1.199 12.592 1.177 18.638-.125 21.813-.362.883-.827 3.676-1.031 6.188-.247 3.041-.534 4.208-.844 3.531-.256-.559-.308-1.772-.125-2.687s-.157-3.519-.75-5.812c-1.788-6.912-1.839-8.822-.625-21.594.543-5.714.977-11.354 1.125-14.062h-.125V804.13l-.062-3.875.125-36.969c.025-20.807.198-29.812.625-29.812zM303.107 551.66l-.963.146-.905-.058v.087l-.613-.058-.759.058c-.019.002-.039-.002-.059 0-9.038.682-10.918 3.571-14.328 5.632-.802.485-.311 1.135-.584 2.218-.138.546-2.082 1.638-2.189 2.247-.092.523 1.428-.094 1.342.467-.06.393-.888.728-1.196 1.284-.238.429-.151 1.544-.204 1.868-.081.493.247 1.352.058 1.751-.216.455-.968.457-1.021 1.051a49.82 49.82 0 0 0 .029 9.192c.048.491.413 1.103.496 1.576.415 2.361.932 4.343 1.722 5.953.33.674-2.754-.446-2.977-.029-.883 1.649-.662 2.625 1.43 5.866 1.382 2.141 3.096 5.118 4.815 6.741.361.341.645.375.905.321.469-.097.873-.506 1.459-.029 1.028.836 2.467 3.822 2.481 5.078.033 3 .853 5.064.438 8.959-.086.805-2.286 3.048-5.049 4.202-2.633 1.1-5.797 1.592-7.296 1.897-11.55 2.35-14.772 3.245-16.634 17.13l-.525 5.807-.438 4.815c-2.177 4.523-3.063 9.163-4.377 13.686-2.09 5.018-3.246 10.222-3.765 15.554-1.282 13.393.664 27.623 2.247 41.497-1.647 2.948-2.104 6.285-2.247 9.834l-.584 10.33 2.247 2.48c3.093 2.971 5.564 2.845 8.346 4.261 2.201.371 3.091-.383 3.093-1.897l-2.714-3.765c.057-4.747-.329-5.424 1.517-7.908l1.051 4.961c.827 3.285 1.654 1.869 2.48 1.984 1.2-4.381.835-4.763 1.196-5.895-.066-2.817.219-5.373-.467-7.879.477-1.566-.881-3.438-2.247-5.311l-2.247-2.831 1.663-23.229 2.218-13.686.613-9.192c.894-3.586 1.751-7.355 2.947-9.426l2.101-2.831.088-.35c2.8 7.549.612 4.282 1.868 19.085.563 5.56.855 18.445-1.634 35.631-1.164 8.038-2.363 7.553-3.764 19.202l-.525 15.729c.009 3.21.35 9.688 1.255 13.424a108.41 108.41 0 0 1 2.656 15.729c.846 8.595.231 16.913 1.459 21.741 1.201 4.723.836 10.263.875 14.62.146 16.257 2.967 26.401 4.319 35.223 1.312 8.561 2.182 12.047.73 16.517-1.498 4.608-.576 5.813-5.982 16.342-2.567 5-3.857 10.17 3.327 11.877 7.598 3.938 6.651.413 9.63-4.319 1.593-2.53 2.912-4.28 3.414-7.412.827-5.154 3.239-6.419 3.677-9.163.311-1.948-.295-3.749-.496-6.975-.091-1.466-.167-3.44-.233-5.749-.113-3.918.047-9.464.35-14.387a164.69 164.69 0 0 1 .584-7.004c1.237-12.029.972-16.916.263-22.47-.359-2.813-.962-6.126-1.021-9.338-.068-3.693 1.185-7.336 1.751-11.323.836-5.886.233-12.436-.146-16.342-.622-6.409 2.188-30.591 3.239-31.546.129-.117.525-.182.963-.233.061.041.112.06.175.117 1.052.955 3.862 25.137 3.239 31.546-.379 3.906-.982 10.456-.146 16.342.566 3.987 1.819 7.629 1.751 11.323-.06 3.213-.662 6.525-1.021 9.338-.709 5.555-.975 10.441.263 22.47a164.89 164.89 0 0 1 .584 7.004c.303 4.923.464 10.468.35 14.387l-.233 5.749c-.201 3.225-.807 5.026-.496 6.975.438 2.745 2.85 4.009 3.677 9.163.503 3.132 1.822 4.882 3.414 7.412 2.979 4.732 2.032 8.257 9.63 4.319 7.183-1.707 5.894-6.877 3.327-11.877-5.406-10.529-4.485-11.734-5.982-16.342-1.453-4.47-.583-7.956.73-16.517 1.352-8.821 4.173-18.965 4.319-35.223.039-4.357-.326-9.898.875-14.62 1.228-4.828.613-13.146 1.459-21.741.674-6.847 1.662-11.625 2.656-15.729.905-3.736 1.244-10.214 1.255-13.424l-.554-15.729c-1.401-11.649-2.571-11.164-3.735-19.202-2.49-17.187-2.197-30.071-1.634-35.631l.613-21.07c3.613 4.307 5.065 9.24 6.391 14.591l.613 9.192 2.218 13.686 1.984 24.221-2.247 1.838c-2.573 3.468-2.703 7.551-3.035 12.344.362 1.132-.5 2.36.7 6.741.827-.115 1.654 1.301 2.48-1.984l1.868-4.961c1.847 2.484 1.46 3.162 1.517 7.908l-3.706 2.422c.002 1.514 1.388 2.618 3.589 2.247 2.782-1.415 5.75-.298 8.842-3.268 1.997-2.347 3.002-6.591 2.335-12.49-.143-3.55-1.271-7.207-2.918-10.155 1.583-13.874 3.208-28.104 1.926-41.497-.519-5.332-1.675-10.536-3.765-15.554-1.315-4.523-2.2-9.163-4.377-13.686l-.438-4.815-.525-5.807c-1.862-13.885-3.916-14.459-15.467-16.809-1.499-.305-4.663-1.293-7.296-2.393-2.762-1.154-4.116-3.222-4.202-4.027-.415-3.895-.616-5.783-.584-8.784.014-1.255.461-1.907 1.488-2.743.586-.477 1.308-2.026 1.459-2.48.426-1.28.497-2.487.584-2.977.919-5.347 2.265-1.25 3.706-7.15.278-1.561-.45-1.98.379-3.619 1.08-3.912.907-9.231-1.605-6.858.39-8.125-2.736-22.766-15.583-25.593z" class="C"/><path d="M301.744 551.776l-.5-.031v.094l-.625-.062-.75.063c-.019.002-.043-.002-.062 0-9.038.682-10.902 3.564-14.312 5.625-.802.485-.321 1.136-.594 2.219-.138.546-2.08 1.641-2.187 2.25-.092.523 1.429-.092 1.344.469-.06.393-.879.725-1.187 1.281-.238.429-.165 1.552-.219 1.875-.081.493.251 1.352.063 1.75-.216.455-.977.468-1.031 1.063a49.77 49.77 0 0 0 .031 9.188c.048.491.417 1.089.5 1.563.415 2.361.929 4.358 1.719 5.969.33.674-2.746-.448-2.969-.031-.883 1.649-.654 2.635 1.438 5.875 1.382 2.141 3.093 5.095 4.813 6.719.361.341.647.398.906.344.469-.097.851-.509 1.438-.031 1.028.836 2.486 3.807 2.5 5.063.033 3 .853 5.073.438 8.969-.086.805-2.3 3.033-5.062 4.188-2.633 1.1-5.782 1.601-7.281 1.906-11.55 2.35-14.794 3.24-16.656 17.125l-.5 5.813-.437 4.812c-2.177 4.523-3.06 9.164-4.375 13.688-2.09 5.018-3.262 10.231-3.781 15.563-1.282 13.393.667 27.626 2.25 41.5-1.647 2.948-2.107 6.263-2.25 9.813l-.594 10.344 2.25 2.469c3.093 2.971 5.562 2.866 8.344 4.281 2.201.371 3.091-.392 3.094-1.906l-2.687-3.781c.057-4.747-.347-5.422 1.5-7.906l1.063 4.969c.827 3.285 1.642 1.885 2.469 2 1.2-4.381.826-4.774 1.188-5.906-.066-2.817.217-5.369-.469-7.875.477-1.566-.853-3.439-2.219-5.312l-2.25-2.844 1.656-23.219 2.219-13.687.594-9.187c.894-3.586 1.772-7.366 2.969-9.437l2.094-2.812.094-.375c2.8 7.549.619 4.29 1.875 19.094.563 5.56.833 18.438-1.656 35.625-1.164 8.038-2.349 7.57-3.75 19.219l-.531 15.719c.009 3.21.345 9.702 1.25 13.438.994 4.104 1.982 8.871 2.656 15.719.846 8.595.241 16.923 1.469 21.75 1.201 4.723.836 10.268.875 14.625.146 16.257 2.96 26.397 4.313 35.219 1.312 8.561 2.172 12.03.719 16.5-1.498 4.608-.563 5.815-5.969 16.344-2.567 5-3.871 10.168 3.313 11.875 7.598 3.938 6.678.419 9.656-4.312 1.593-2.53 2.903-4.274 3.406-7.406.827-5.154 3.219-6.412 3.656-9.156.311-1.948-.268-3.744-.469-6.969a177.87 177.87 0 0 1-.25-5.75c-.113-3.918.041-9.484.344-14.406a163.86 163.86 0 0 1 .594-7c1.237-12.029.959-16.914.25-22.469-.359-2.813-.94-6.131-1-9.344-.069-3.693 1.184-7.325 1.75-11.312.836-5.886.223-12.438-.156-16.344-.622-6.409 2.198-30.608 3.25-31.562.074-.067.23-.085.438-.125m185.121-195.445l-2.594.063c-5.905.225-8.4.744-9.562 1.906-.413.413-1.21 1.069-1.75 1.469-3.551 2.626-7.031 9.385-7.25 14.094-.081 1.746-.335 3.633-.562 4.188s-.241 1.704-.031 2.563.573 2.588.813 3.844c.509 2.67 1.495 4.645 2.625 5.281 1.958 1.103 1.553 3.18-1.594 8.438-3.339 5.579-4.218 7.719-3.25 7.719.335 0 .594 1.006.594 2.25 0 2.184-.094 2.285-2.437 2.875-6.399 1.611-9.819 4.11-11.719 8.563-2.745 6.433-5.547 25.218-6.687 44.813-.201 3.454-1.021 9.357-1.812 13.125-1.336 6.359-1.461 8.474-1.875 29.406-.391 19.725-.602 23.323-1.687 28.719l-1.25 6.188 1.219 3.188c1.732 4.63 3.098 6.281 6.875 8.188 3.549 1.791 5.995 2.153 6.406.969.564-1.625-.331-15.95-1.312-21-.891-4.585-.985-6.374-.531-11.406.699-7.754 2.151-17.947 2.813-19.687.925-2.434 2.76-13.013 3.125-18 .465-6.36 3.113-20.605 2.625-14.719-.038.457.715 3.329 1.094 6.469l1.156 9.125c.326 2.483.211 4.063-.375 5.719-3.726 10.525-6.431 23.869-6.875 33.969-.477 10.852 1.476 31.96 4.094 44.406.481 2.284 1.921 10.364 3.219 17.969 2.551 14.948 2.613 15.82 2.219 38.938-.218 12.777-.195 13.33 1.344 19.719 3.477 14.431 5.091 22.833 5.531 29.094l.469 6.563-3.094 5.531c-3.504 6.248-3.811 8.127-1.656 10.688 1.176 1.397 1.982 1.735 4.156 1.875 5.46.352 10.132.129 11.375-.562.703-.391 1.681-1.521 2.188-2.5l.938-1.781.844 1.781c1.154 2.383 3.687 3.43 7.875 3.25l5.719-.219c1.601-.044 2.781-.517 3.875-1.531 2.51-2.328 2.148-4.86-1.531-11.219l-3.062-5.312.469-6.281c.429-5.882 1.777-13.086 5.438-28.812 1.654-7.109 1.962-14.896 1.406-35.125-.23-8.378-.095-10.001 1.594-19.687l4.094-21.687c3.893-19.328 5.584-37.197 4.563-47.906-.881-9.228-3.171-20.395-5.5-26.812-2.199-6.059-2.317-7.628-1.375-17.5.947-9.932 1.305-10.564 2.469-4.219.541 2.947 1.267 7.954 1.594 11.094s1.244 8.515 2.031 11.969c3.487 15.308 4.845 29.425 3.438 35.656-.504 2.232-1.101 8.299-1.312 13.469l-.375 9.406h1.438c2.021 0 7.353-2.481 8.813-4.094 1.421-1.571 2.567-3.825 3.594-7.094.639-2.034.55-3.137-.531-8.562-1.056-5.296-1.318-9.344-1.75-27.062-.499-20.444-.655-22.723-2.469-34.844-.493-3.297-1.293-11.623-1.781-18.531-1.146-16.199-2.271-25.02-4.031-31.406-1.291-4.683-1.686-5.415-4.406-8.062-2.988-2.908-8.008-5.375-10.937-5.375-1.083 0-1.415-.38-1.719-2-.207-1.104-.241-2.242-.062-2.531s-.152-1.801-.75-3.375-.986-2.983-.844-3.125-.419-1.611-1.25-3.25c-1.459-2.88-1.598-5.687-.281-5.687.949 0 2.483-2.861 3-5.625l.813-4.25c.222-1.077.017-1.944-.656-2.687-.743-.821-1.041-2.25-1.125-5.594-.135-5.339-1.439-8.466-5.125-12.312-2.52-2.631-3.746-3.19-9.156-3.094zm-13.656 38.781c.325-.049.743.181 1.25.688 1.239 1.239 1.183 7.499-.094 9.969-.519 1.004-1.166 1.813-1.437 1.813-.606 0-1.17-4.204-.594-4.437.228-.092.253-1.797.094-3.781-.217-2.702.067-4.143.781-4.25zm21.438 0c.102-.026.166-.022.219.031.213.213.167 2.796-.125 5.719l-.531 5.313-.969-2.125c-1.269-2.808-1.203-6.105.156-7.875.45-.585.945-.985 1.25-1.062zM483.688 733.47c.427 0 .594 8.586.594 28.438 0 15.784.274 30.464.594 32.969.552 4.324-.035 12.753-.75 15v.031L484 822.689c.137.266.234 1.042.25 2.406.022 1.882.592 9.059 1.25 15.969 1.199 12.592 1.146 18.638-.156 21.813-.362.883-.827 3.676-1.031 6.188-.247 3.041-.534 4.208-.844 3.531-.256-.559-.308-1.772-.125-2.687s-.157-3.519-.75-5.812c-1.788-6.912-1.839-8.822-.625-21.594.642-6.751 1.194-13.679 1.219-15.406.007-.461.04-.88.063-1.281h-.281l.156-18.469c-.138-1.913-.21-4.532-.187-7.094l.094-36.969c.025-20.807.23-29.812.656-29.812z" class="E"/><path d="M488.719 549.751c-.556-.011-1.167.019-1.844.031l-2.594.063-1.156.063v196.875c.097-8.838.278-13.312.563-13.312.427 0 .594 8.617.594 28.469 0 15.784.274 30.464.594 32.969.49 3.839.076 10.865-.531 13.969v17.125h-.031c.108 2.591.563 8.861 1.156 15.094 1.199 12.592 1.177 18.638-.125 21.813-.362.883-.827 3.644-1.031 6.156-.247 3.041-.534 4.239-.844 3.563-.256-.559-.308-1.772-.125-2.687.114-.572.008-1.841-.219-3.25v22.719l.719-1.375.844 1.75c1.154 2.383 3.687 3.43 7.875 3.25l5.719-.219c1.601-.044 2.75-.486 3.844-1.5 2.51-2.328 2.179-4.86-1.5-11.219l-3.062-5.312.438-6.281c.429-5.882 1.809-13.118 5.469-28.844 1.654-7.109 1.962-14.865 1.406-35.094-.23-8.378-.095-10.032 1.594-19.719l4.063-21.687c3.893-19.328 5.616-37.197 4.594-47.906-.881-9.228-3.171-20.395-5.5-26.812-2.199-6.059-2.317-7.628-1.375-17.5.947-9.932 1.305-10.533 2.469-4.187.541 2.947 1.267 7.923 1.594 11.063s1.213 8.546 2 12c3.487 15.308 4.876 29.425 3.469 35.656-.504 2.232-1.101 8.268-1.312 13.438l-.375 9.406h1.438c2.021 0 7.322-2.45 8.781-4.062 1.421-1.571 2.567-3.857 3.594-7.125.639-2.034.582-3.137-.5-8.562-1.056-5.296-1.318-9.344-1.75-27.062-.499-20.444-.655-22.691-2.469-34.812-.493-3.297-1.293-11.655-1.781-18.562-1.146-16.199-2.271-25.02-4.031-31.406-1.291-4.683-1.686-5.384-4.406-8.031-2.988-2.908-8.008-5.375-10.937-5.375-1.083 0-1.415-.38-1.719-2-.207-1.104-.241-2.242-.062-2.531s-.152-1.832-.75-3.406-.986-2.983-.844-3.125-.419-1.58-1.25-3.219c-1.46-2.88-1.598-5.687-.281-5.687.949 0 2.451-2.861 2.969-5.625l.844-4.25c.222-1.077.017-1.944-.656-2.687-.743-.821-1.041-2.25-1.125-5.594-.135-5.339-1.439-8.466-5.125-12.312-2.205-2.302-3.419-3.046-7.312-3.125zm6.063 38.781c.04.006.067.036.094.063.213.213.136 2.765-.156 5.688l-.531 5.313-.937-2.125c-1.269-2.808-1.203-6.074.156-7.844.525-.683 1.097-1.137 1.375-1.094zm-11.656 237.469v2.188l.063-1.094.031-1.094h-.094z" class="D"/><path d="M641.956 551.66l-.963.146-.905-.058v.087l-.613-.058-.759.058c-.019.002-.039-.002-.058 0-9.038.682-10.918 3.571-14.328 5.632-.802.485-.311 1.135-.584 2.218-.138.546-2.082 1.638-2.189 2.247-.092.523 1.428-.094 1.342.467-.06.393-.888.728-1.196 1.284-.238.429-.151 1.544-.204 1.868-.081.493.247 1.352.058 1.751-.216.455-.968.457-1.021 1.051a49.82 49.82 0 0 0 .029 9.192c.048.491.413 1.103.496 1.576.415 2.361.932 4.343 1.722 5.953.33.674-2.754-.446-2.977-.029-.883 1.649-.662 2.625 1.43 5.866 1.382 2.141 3.096 5.118 4.815 6.741.361.341.645.375.905.321.469-.097.873-.506 1.459-.029 1.028.836 2.467 3.822 2.481 5.078.033 3 .853 5.064.438 8.959-.086.805-2.286 3.048-5.049 4.202-2.633 1.1-5.797 1.592-7.296 1.897-11.55 2.35-14.772 3.245-16.634 17.13l-.525 5.807-.438 4.815c-2.177 4.523-3.063 9.163-4.377 13.686-2.09 5.018-3.246 10.222-3.764 15.554-1.282 13.393.664 27.623 2.247 41.497-1.647 2.948-2.104 6.285-2.247 9.834l-.584 10.33 2.247 2.48c3.093 2.971 5.564 2.845 8.346 4.261 2.201.371 3.091-.383 3.093-1.897l-2.714-3.765c.057-4.747-.329-5.424 1.517-7.908l1.051 4.961c.827 3.285 1.654 1.869 2.48 1.984 1.2-4.381.835-4.763 1.196-5.895-.066-2.817.219-5.373-.467-7.879.477-1.566-.881-3.438-2.247-5.311l-2.247-2.831 1.663-23.229 2.218-13.686.613-9.192c.894-3.586 1.751-7.355 2.947-9.426l2.101-2.831.088-.35c2.8 7.549.612 4.282 1.868 19.085.563 5.56.855 18.445-1.634 35.631-1.164 8.038-2.363 7.553-3.764 19.202l-.525 15.729c.009 3.21.35 9.688 1.255 13.424.994 4.104 1.981 8.882 2.656 15.729.846 8.595.231 16.913 1.459 21.741 1.201 4.723.836 10.263.875 14.62.146 16.257 2.967 26.401 4.319 35.223 1.312 8.561 2.182 12.047.73 16.517-1.498 4.608-.576 5.813-5.982 16.342-2.567 5-3.857 10.17 3.327 11.877 7.598 3.938 6.651.413 9.63-4.319 1.593-2.53 2.912-4.28 3.414-7.412.827-5.154 3.239-6.419 3.677-9.163.311-1.948-.295-3.749-.496-6.975-.091-1.466-.167-3.44-.233-5.749-.113-3.918.047-9.464.35-14.387.16-2.597.355-4.781.584-7.004 1.237-12.029.972-16.916.263-22.47-.359-2.813-.962-6.126-1.021-9.338-.068-3.693 1.185-7.336 1.751-11.323.836-5.886.233-12.436-.146-16.342-.622-6.409 2.188-30.591 3.239-31.546.129-.117.525-.182.963-.233.061.041.112.06.175.117 1.052.955 3.862 25.137 3.239 31.546-.379 3.906-.982 10.456-.146 16.342.566 3.987 1.819 7.629 1.751 11.323-.06 3.213-.662 6.525-1.021 9.338-.709 5.555-.975 10.441.263 22.47a164.89 164.89 0 0 1 .584 7.004c.303 4.923.464 10.468.35 14.387l-.233 5.749c-.201 3.225-.807 5.026-.496 6.975.438 2.745 2.85 4.009 3.677 9.163.503 3.132 1.822 4.882 3.414 7.412 2.979 4.732 2.032 8.257 9.63 4.319 7.183-1.707 5.894-6.877 3.327-11.877-5.406-10.529-4.485-11.734-5.982-16.342-1.453-4.47-.583-7.956.73-16.517 1.352-8.821 4.173-18.965 4.319-35.223.039-4.357-.326-9.898.875-14.62 1.228-4.828.613-13.146 1.459-21.741.674-6.847 1.662-11.625 2.656-15.729.905-3.736 1.244-10.214 1.255-13.424l-.554-15.729c-1.401-11.649-2.571-11.164-3.735-19.202-2.49-17.187-2.197-30.071-1.634-35.631l.613-21.07c3.613 4.307 5.065 9.24 6.391 14.591l.613 9.192 2.218 13.686 1.984 24.221-2.247 1.838c-2.573 3.468-2.703 7.551-3.035 12.344.362 1.132-.5 2.36.7 6.741.827-.115 1.654 1.301 2.48-1.984l1.868-4.961c1.847 2.484 1.46 3.162 1.517 7.908l-3.706 2.422c.002 1.514 1.388 2.618 3.589 2.247 2.782-1.415 5.75-.298 8.842-3.268 1.997-2.347 3.002-6.591 2.335-12.49-.143-3.55-1.271-7.207-2.918-10.155 1.583-13.874 3.208-28.104 1.926-41.497-.519-5.332-1.675-10.536-3.765-15.554-1.315-4.523-2.2-9.163-4.377-13.686l-.438-4.815-.525-5.807c-1.862-13.885-3.916-14.459-15.467-16.809-1.499-.305-4.663-1.293-7.296-2.393-2.762-1.154-4.116-3.222-4.202-4.027-.415-3.895-.616-5.783-.584-8.784.014-1.255.461-1.907 1.488-2.743.586-.477 1.308-2.026 1.459-2.48.426-1.28.497-2.487.584-2.977.919-5.347 2.265-1.25 3.706-7.15.278-1.561-.45-1.98.379-3.619 1.08-3.912.907-9.231-1.605-6.858.39-8.125-2.736-22.766-15.583-25.593z" class="C"/><path d="M640.596 745.283l.5-.094c.061.041.125.068.188.125 1.052.955 3.872 25.122 3.25 31.531-.379 3.906-.992 10.457-.156 16.344.566 3.987 1.818 7.619 1.75 11.313-.06 3.213-.672 6.531-1.031 9.344-.709 5.555-.956 10.44.281 22.469.229 2.223.403 4.403.563 7 .303 4.923.488 10.488.375 14.406l-.25 5.75c-.201 3.225-.811 5.021-.5 6.969.438 2.745 2.86 4.003 3.688 9.156.503 3.132 1.814 4.876 3.406 7.406 2.979 4.732 2.027 8.282 9.625 4.344 7.183-1.707 5.911-6.875 3.344-11.875-5.406-10.529-4.502-11.736-6-16.344-1.453-4.47-.562-7.97.75-16.531 1.352-8.821 4.167-18.961 4.313-35.219.039-4.357-.326-9.902.875-14.625 1.228-4.828.623-13.155 1.469-21.75.674-6.847 1.662-11.614 2.656-15.719.905-3.736 1.239-10.227 1.25-13.437l-.562-15.719c-1.401-11.649-2.554-11.149-3.719-19.188-2.49-17.187-2.22-30.096-1.656-35.656l.625-21.062c3.613 4.307 5.049 9.243 6.375 14.594l.625 9.188 2.219 13.688 1.969 24.219-2.219 1.844c-2.573 3.468-2.731 7.551-3.062 12.344.362 1.132-.481 2.369.719 6.75.827-.115 1.642 1.285 2.469-2l1.875-4.937c1.847 2.484 1.474 3.159 1.531 7.906l-3.719 2.406c.002 1.514 1.392 2.621 3.594 2.25 2.782-1.415 5.751-.279 8.844-3.25 1.997-2.347 2.98-6.601 2.313-12.5-.143-3.55-1.259-7.208-2.906-10.156 1.583-13.874 3.219-28.107 1.938-41.5-.519-5.332-1.692-10.545-3.781-15.562-1.315-4.523-2.198-9.164-4.375-13.687l-.437-4.812-.531-5.812c-1.862-13.885-3.918-14.431-15.469-16.781-1.499-.305-4.648-1.306-7.281-2.406-2.762-1.154-4.133-3.226-4.219-4.031-.415-3.895-.595-5.781-.562-8.781.014-1.255.441-1.914 1.469-2.75.586-.477 1.318-2.015 1.469-2.469.426-1.28.507-2.479.594-2.969.919-5.347 2.246-1.257 3.688-7.156.278-1.561-.423-1.986.406-3.625 1.08-3.912.887-9.217-1.625-6.844.39-8.125-2.715-22.767-15.562-25.594l-.969.125-.406-.031" class="D"/></g><g class="B F"><use xlink:href="#B"/><use xlink:href="#B" x="-14"/></g><g class="G H B"><use xlink:href="#C" class="C"/><use xlink:href="#C" x="-14" class="E"/></g><g class="F B"><use xlink:href="#B" x="422"/><use xlink:href="#B" x="408"/></g><g class="G H B"><use xlink:href="#C" x="422" class="C"/><use xlink:href="#C" x="408" class="D"/></g><use xlink:href="#D"/><use xlink:href="#E"/><use xlink:href="#F"/><use xlink:href="#E" x="422.055"/><g class="B F"><use xlink:href="#G"/><use xlink:href="#G" x="-14"/></g><g class="G H B"><use xlink:href="#C" x="-138.25" y="461.034" class="C"/><use xlink:href="#C" x="-152.25" y="461.034" class="E"/></g><use xlink:href="#D" x="-138.25" y="461.034"/><use xlink:href="#E" x="-138.25" y="461.034"/><g class="B F"><use xlink:href="#G" x="188"/><use xlink:href="#G" x="174"/></g><g class="G H B"><use xlink:href="#C" x="49.75" y="461.034" class="D"/><use xlink:href="#C" x="35.75" y="461.034" class="E"/></g><use xlink:href="#D" x="49.75" y="461.034"/><use xlink:href="#F" x="-353.109" y="461.034"/><g class="B F"><use xlink:href="#H"/><use xlink:href="#H" x="-14"/></g><g class="G H B"><use xlink:href="#C" x="378.588" y="458.205" class="C"/><use xlink:href="#C" x="364.588" y="458.205" class="D"/></g><use xlink:href="#F" x="-43.411" y="458.205"/><use xlink:href="#E" x="378.644" y="458.205"/><g class="B F"><use xlink:href="#H" x="188"/><use xlink:href="#H" x="174"/></g><g class="C G H B"><use xlink:href="#C" x="566.588" y="458.205"/><use xlink:href="#C" x="552.588" y="458.205"/></g><use xlink:href="#E" x="547.448" y="458.205"/><use xlink:href="#E" x="569.488" y="458.205"/><g class="D"><path d="M633.619 453.86l-132.156 90.531 2.25 3.281 132.156-90.5-2.25-3.312z"/><path d="M525.326 542.189l-27.083 6.862 16.186-22.773c-.239 7.064 4.182 13.477 10.897 15.911z" class="B"/><path d="M646.587 455.235v88.531h4v-88.531h-4z"/><use xlink:href="#I" class="B"/></g><g class="C"><path d="M675.337 453.86l-2.187 3.313 136.125 90.531 2.219-3.344-136.156-90.5z"/><path d="M798.326 526.38l16.499 22.547-27.175-6.487c6.64-2.422 10.932-8.922 10.676-16.06z" class="B"/><path d="M614.181 453.61l-294.125 90.5 1.156 3.813 294.156-90.5-1.187-3.812z"/><path d="M343.482 549.125l-27.898-1.504 22.227-16.928c-2.33 6.673-.016 14.111 5.672 18.432z" class="B"/><path d="M478.806 453.86l-2.281 3.313 132.156 90.5 2.281-3.281-132.156-90.531z"/><path d="M598.024 526.215l16.186 22.773-27.083-6.862c6.673-2.33 11.055-8.77 10.897-15.911z" class="B"/></g><g class="E"><path d="M463.806 455.235v88.531h4v-88.531h-4z"/><use xlink:href="#I" x="-182.775" class="B"/><path d="M431.056 453.86L294.9 544.36l2.219 3.344 136.156-90.531-2.219-3.312z"/><path d="M318.801 542.504l-27.175 6.487 16.499-22.547c-.337 7.06 3.995 13.533 10.676 16.06z" class="B"/></g><g class="C"><path d="M492.212 453.61l-1.187 3.813 294.156 90.5 1.188-3.812-294.156-90.5z"/><path d="M768.621 530.619l22.227 16.928-27.898 1.504c5.678-4.209 7.946-11.661 5.672-18.432z" class="B"/></g><use xlink:href="#J"/><use xlink:href="#K"/><use xlink:href="#L"/><use xlink:href="#L" x="14.672"/><use xlink:href="#M"/><path d="M316.559 110.46v3.727H321v1.676h-4.441v7.125c0 1.07.146 1.758.439 2.063s.889.457 1.787.457H321v1.805h-2.215c-1.664 0-2.813-.311-3.445-.932s-.949-1.752-.949-3.393v-7.125h-1.582v-1.676h1.582v-3.727z"/><use xlink:href="#N"/><use xlink:href="#O"/><use xlink:href="#P"/><use xlink:href="#Q"/><use xlink:href="#J" x="497.399"/><use xlink:href="#K" x="497.399"/><use xlink:href="#L" x="497.399"/><use xlink:href="#L" x="512.071"/><use xlink:href="#M" x="497.399"/><use xlink:href="#R"/><use xlink:href="#N" x="497.399"/><use xlink:href="#O" x="497.399"/><use xlink:href="#P" x="497.399"/><use xlink:href="#J" x="633.993"/><use xlink:href="#J" x="-17.453" y="798"/><use xlink:href="#K" x="-17.453" y="798"/><use xlink:href="#L" x="-17.453" y="798"/><use xlink:href="#L" x="-2.781" y="798"/><use xlink:href="#S"/><use xlink:href="#R" x="-514.852" y="798"/><use xlink:href="#N" x="-17.453" y="798"/><use xlink:href="#O" x="-17.453" y="798"/><use xlink:href="#P" x="-17.453" y="798"/><use xlink:href="#Q" x="-17.453" y="798"/><use xlink:href="#J" x="153.091" y="798"/><use xlink:href="#K" x="153.091" y="798"/><use xlink:href="#L" x="153.091" y="798"/><use xlink:href="#L" x="167.763" y="798"/><use xlink:href="#M" x="153.091" y="798"/><path d="M469.65 908.46v3.727h4.441v1.676h-4.441v7.125c0 1.07.146 1.758.439 2.063s.889.457 1.787.457h2.215v1.805h-2.215c-1.664 0-2.813-.311-3.445-.932s-.949-1.752-.949-3.393v-7.125H465.9v-1.676h1.582v-3.727z"/><use xlink:href="#N" x="153.091" y="798"/><use xlink:href="#O" x="153.091" y="798"/><use xlink:href="#P" x="153.091" y="798"/><use xlink:href="#Q" x="153.091" y="798"/><use xlink:href="#J" x="306.091" y="798"/><use xlink:href="#J" x="339.314" y="798"/><use xlink:href="#K" x="339.314" y="798"/><use xlink:href="#L" x="339.314" y="798"/><use xlink:href="#L" x="353.986" y="798"/><use xlink:href="#M" x="339.314" y="798"/><use xlink:href="#R" x="-158.085" y="798"/><use xlink:href="#N" x="339.314" y="798"/><use xlink:href="#O" x="339.314" y="798"/><use xlink:href="#P" x="339.314" y="798"/><use xlink:href="#J" x="475.908" y="798"/><use xlink:href="#J" x="515.946" y="798"/><use xlink:href="#K" x="515.946" y="798"/><use xlink:href="#L" x="515.946" y="798"/><use xlink:href="#L" x="530.618" y="798"/><use xlink:href="#S" x="533.399"/><use xlink:href="#R" x="18.547" y="798"/><use xlink:href="#N" x="515.946" y="798"/><use xlink:href="#O" x="515.946" y="798"/><use xlink:href="#P" x="515.946" y="798"/><use xlink:href="#T"/><g stroke="#000" stroke-width="1.875" class="B"><use xlink:href="#U" class="C"/><use xlink:href="#U" y="-132" class="E"/><use xlink:href="#U" y="-66" class="D"/></g><use xlink:href="#Q" x="-319.672" y="225.423"/><use xlink:href="#V"/><use xlink:href="#K" x="-160.765" y="225.423"/><use xlink:href="#K" x="-154.109" y="225.423"/><use xlink:href="#P" x="-245.187" y="225.423"/><use xlink:href="#K" x="-132.687" y="225.423"/><path d="M140.747 345.633v1.055h-9.914c.094 1.484.541 2.615 1.342 3.393s1.916 1.166 3.346 1.166c.828 0 1.631-.102 2.408-.305s1.549-.508 2.314-.914v2.039a12.93 12.93 0 0 1-2.379.75c-.813.172-1.637.258-2.473.258-2.094 0-3.752-.609-4.975-1.828s-1.834-2.867-1.834-4.945c0-2.148.58-3.854 1.74-5.115s2.725-1.893 4.693-1.893c1.766 0 3.162.568 4.189 1.705s1.541 2.682 1.541 4.635zM138.59 345c-.016-1.18-.346-2.121-.99-2.824s-1.498-1.055-2.561-1.055c-1.203 0-2.166.34-2.889 1.02s-1.139 1.637-1.248 2.871z"/><use xlink:href="#J" x="-183.078" y="291.423"/><use xlink:href="#V" x="0.047" y="66"/><use xlink:href="#K" x="-160.719" y="291.423"/><use xlink:href="#K" x="-154.062" y="291.423"/><use xlink:href="#P" x="-245.14" y="291.423"/><use xlink:href="#K" x="-132.64" y="291.423"/><use xlink:href="#P" x="-223.719" y="291.423"/><use xlink:href="#T" x="-835.618" y="-440.577"/><use xlink:href="#V" x="2.484" y="132"/><path d="M97.27 466.5h2.156v18.234H97.27z"/><use xlink:href="#K" x="-151.625" y="357.423"/><use xlink:href="#P" x="-242.703" y="357.423"/><use xlink:href="#K" x="-130.203" y="357.423"/><use xlink:href="#P" x="-221.281" y="357.423"/><path d="M194.807 476.532c.508.172 1.002.539 1.482 1.102s.963 1.336 1.447 2.32l2.402 4.781h-2.543l-2.238-4.488c-.578-1.172-1.139-1.949-1.682-2.332s-1.283-.574-2.221-.574h-2.578v7.395h-2.367v-17.496h5.344c2 0 3.492.418 4.477 1.254s1.477 2.098 1.477 3.785c0 1.102-.256 2.016-.768 2.742s-1.256 1.23-2.232 1.512zm-5.93-7.348v6.211h2.977c1.141 0 2.002-.264 2.584-.791s.873-1.303.873-2.326-.291-1.795-.873-2.314-1.443-.779-2.584-.779z"/><use xlink:href="#P" x="-150.182" y="357.423"/><path d="M227.314 472.114v2.016c-.609-.336-1.221-.588-1.834-.756s-1.232-.252-1.857-.252c-1.398 0-2.484.443-3.258 1.33s-1.16 2.131-1.16 3.732.387 2.846 1.16 3.732 1.859 1.33 3.258 1.33a7 7 0 0 0 1.857-.252 8.39 8.39 0 0 0 1.834-.756v1.992a8.86 8.86 0 0 1-1.869.633 9.61 9.61 0 0 1-2.057.211c-1.977 0-3.547-.621-4.711-1.863s-1.746-2.918-1.746-5.027c0-2.141.588-3.824 1.764-5.051s2.787-1.84 4.834-1.84c.664 0 1.312.068 1.945.205a8.86 8.86 0 0 1 1.84.615zm15 5.519v1.055H232.4c.094 1.484.541 2.615 1.342 3.393s1.916 1.166 3.346 1.166a9.49 9.49 0 0 0 2.408-.305 10.71 10.71 0 0 0 2.314-.914v2.039a12.93 12.93 0 0 1-2.379.75c-.813.172-1.637.258-2.473.258-2.094 0-3.752-.609-4.975-1.828s-1.834-2.867-1.834-4.945c0-2.148.58-3.854 1.74-5.115s2.725-1.893 4.693-1.893c1.766 0 3.162.568 4.189 1.705s1.541 2.682 1.541 4.635zm-2.156-.633c-.016-1.18-.346-2.121-.99-2.824s-1.498-1.055-2.561-1.055c-1.203 0-2.166.34-2.889 1.02s-1.139 1.637-1.248 2.871zm14.063-5.003v2.039a8.43 8.43 0 0 0-1.898-.703c-.656-.156-1.336-.234-2.039-.234-1.07 0-1.873.164-2.408.492s-.803.82-.803 1.477c0 .5.191.893.574 1.178s1.152.557 2.309.814l.738.164c1.531.328 2.619.791 3.264 1.389s.967 1.432.967 2.502c0 1.219-.482 2.184-1.447 2.895s-2.291 1.066-3.979 1.066a12.44 12.44 0 0 1-2.197-.205 18.36 18.36 0 0 1-2.408-.615v-2.227c.797.414 1.582.725 2.355.932s1.539.311 2.297.311c1.016 0 1.797-.174 2.344-.521s.82-.838.82-1.471c0-.586-.197-1.035-.592-1.348s-1.26-.613-2.596-.902l-.75-.176c-1.336-.281-2.301-.713-2.895-1.295s-.891-1.381-.891-2.396c0-1.234.438-2.187 1.313-2.859s2.117-1.008 3.727-1.008c.797 0 1.547.059 2.25.176s1.352.293 1.945.527zm12.515 0v2.039a8.43 8.43 0 0 0-1.898-.703c-.656-.156-1.336-.234-2.039-.234-1.07 0-1.873.164-2.408.492s-.803.82-.803 1.477c0 .5.191.893.574 1.178s1.152.557 2.309.814l.738.164c1.531.328 2.619.791 3.264 1.389s.967 1.432.967 2.502c0 1.219-.482 2.184-1.447 2.895s-2.291 1.066-3.979 1.066a12.44 12.44 0 0 1-2.197-.205 18.36 18.36 0 0 1-2.408-.615v-2.227c.797.414 1.582.725 2.355.932s1.539.311 2.297.311c1.016 0 1.797-.174 2.344-.521s.82-.838.82-1.471c0-.586-.197-1.035-.592-1.348s-1.26-.613-2.596-.902l-.75-.176c-1.336-.281-2.301-.713-2.895-1.295s-.891-1.381-.891-2.396c0-1.234.437-2.187 1.313-2.859s2.117-1.008 3.727-1.008c.797 0 1.547.059 2.25.176s1.352.293 1.945.527z"/><use xlink:href="#W"/><path d="M275.994 471.61h2.285l4.102 11.016 4.102-11.016h2.285l-4.922 13.125h-2.93z"/><use xlink:href="#P" x="-61.541" y="357.423"/><path d="M149.75 347.75h34v18m-34 46h34v-18m-34 84h28" stroke="#000" fill="none" stroke-width="1.5"/><path d="M188.889 372.084v2.496c-.797-.742-1.646-1.297-2.549-1.664a7.56 7.56 0 0 0-2.877-.551c-2 0-3.531.611-4.594 1.834s-1.594 2.99-1.594 5.303c0 2.305.531 4.068 1.594 5.291s2.594 1.834 4.594 1.834a7.56 7.56 0 0 0 2.877-.551c.902-.367 1.752-.922 2.549-1.664v2.473a9.66 9.66 0 0 1-2.631 1.266c-.926.281-1.904.422-2.936.422-2.648 0-4.734-.811-6.258-2.432s-2.285-3.834-2.285-6.639c0-2.812.762-5.029 2.285-6.65s3.609-2.432 6.258-2.432c1.047 0 2.033.139 2.959.416a9.37 9.37 0 0 1 2.607 1.248z"/><use xlink:href="#L" x="-69.732" y="260.92"/><use xlink:href="#S" x="-66.951" y="-537.079"/><use xlink:href="#L" x="-39.826" y="260.92"/><path d="M247.272 377.627c.539-.969 1.184-1.684 1.934-2.145s1.633-.691 2.648-.691c1.367 0 2.422.479 3.164 1.436s1.113 2.318 1.113 4.084v7.922h-2.168v-7.852c0-1.258-.223-2.191-.668-2.801s-1.125-.914-2.039-.914c-1.117 0-2 .371-2.648 1.113s-.973 1.754-.973 3.035v7.418h-2.168v-7.852c0-1.266-.223-2.201-.668-2.807s-1.133-.908-2.062-.908c-1.102 0-1.977.373-2.625 1.119s-.973 1.756-.973 3.029v7.418h-2.168v-13.125h2.168v2.039c.492-.805 1.082-1.398 1.77-1.781s1.504-.574 2.449-.574c.953 0 1.764.242 2.432.727s1.162 1.188 1.482 2.109z"/><use xlink:href="#W" x="-10.441" y="-96.502"/><use xlink:href="#X"/><path d="M288.299 381.635c-1.742 0-2.949.199-3.621.598s-1.008 1.078-1.008 2.039c0 .766.252 1.373.756 1.822s1.189.674 2.057.674c1.195 0 2.154-.424 2.877-1.271s1.084-1.975 1.084-3.381v-.48zm4.301-.891v7.488h-2.156v-1.992c-.492.797-1.105 1.385-1.84 1.764s-1.633.568-2.695.568c-1.344 0-2.412-.377-3.205-1.131s-1.189-1.764-1.189-3.029c0-1.477.494-2.59 1.482-3.34s2.463-1.125 4.424-1.125h3.023v-.211c0-.992-.326-1.76-.979-2.303s-1.568-.814-2.748-.814a8.91 8.91 0 0 0-2.191.27 8.69 8.69 0 0 0-2.051.809v-1.992c.789-.305 1.555-.533 2.297-.686s1.465-.228 2.168-.229c1.898 0 3.316.492 4.254 1.477s1.406 2.477 1.406 4.477z"/><use xlink:href="#X" x="29.953"/><path d="M321.733 375.612v2.016c-.609-.336-1.221-.588-1.834-.756s-1.232-.252-1.857-.252c-1.398 0-2.484.443-3.258 1.33s-1.16 2.131-1.16 3.732.387 2.846 1.16 3.732 1.859 1.33 3.258 1.33c.625 0 1.244-.084 1.857-.252a8.39 8.39 0 0 0 1.834-.756v1.992a8.86 8.86 0 0 1-1.869.633c-.645.141-1.33.211-2.057.211-1.977 0-3.547-.621-4.711-1.863s-1.746-2.918-1.746-5.027c0-2.141.588-3.824 1.764-5.051s2.787-1.84 4.834-1.84a9.19 9.19 0 0 1 1.945.205 8.86 8.86 0 0 1 1.84.615z"/><use xlink:href="#P" x="-27.779" y="260.921"/><defs ><path id="B" d="M353.4 150.985c-3.289 0-5.937 2.649-5.937 5.938v57.063a5.91 5.91 0 0 0 4.219 5.688v1.156c-2.368.749-4.094 2.984-4.094 5.656v83.281c0 3.289 2.594 5.938 5.813 5.938s5.813-2.649 5.813-5.937v-83.281c0-2.662-1.709-4.898-4.062-5.656v-1.187a5.89 5.89 0 0 0 4.188-5.656v-57.062c0-3.289-2.649-5.937-5.937-5.937z"/><path id="C" d="M347.579 270.696h11.642v15.91h-11.642v-15.91z"/><path id="D" d="M335.933 322.727l-3.746 10.158h7.506zm-1.559-2.721h3.131l7.779 20.412h-2.871l-1.859-5.236h-9.201l-1.859 5.236h-2.912z"/><path id="E" d="M356.536 321.879c-2.005 0-3.598.747-4.778 2.242s-1.771 3.532-1.771 6.111c0 2.57.59 4.603 1.771 6.098s2.773 2.242 4.778 2.242 3.593-.747 4.765-2.242 1.757-3.527 1.757-6.098c0-2.579-.586-4.617-1.757-6.111s-2.759-2.242-4.765-2.242zm0-2.242c2.862 0 5.15.959 6.863 2.878s2.57 4.491 2.57 7.718c0 3.217-.857 5.785-2.57 7.704s-4.001 2.878-6.863 2.878c-2.871 0-5.166-.957-6.884-2.871s-2.577-4.484-2.577-7.711.859-5.799 2.577-7.718 4.013-2.878 6.884-2.878z"/><path id="F" d="M753.872 330.67v7.479h4.43c1.486 0 2.586-.308 3.302-.923s1.073-1.556 1.073-2.823c0-1.276-.358-2.217-1.073-2.823s-1.816-.909-3.302-.909zm0-8.395v6.152h4.088c1.349 0 2.354-.253 3.015-.759s.991-1.278.991-2.317c0-1.03-.33-1.8-.991-2.311s-1.666-.766-3.015-.766zm-2.762-2.27h7.055c2.105 0 3.728.438 4.867 1.313s1.709 2.119 1.709 3.732c0 1.249-.292 2.242-.875 2.98s-1.44 1.199-2.57 1.381c1.358.292 2.413.9 3.165 1.825s1.128 2.08 1.128 3.466c0 1.823-.62 3.231-1.859 4.225s-3.003 1.49-5.291 1.49h-7.328z"/><path id="G" d="M215.15 612.019c-3.289 0-5.937 2.649-5.937 5.938v57.063a5.91 5.91 0 0 0 4.219 5.688v1.156c-2.368.749-4.094 2.984-4.094 5.656V770.8c0 3.289 2.594 5.938 5.813 5.938s5.813-2.649 5.813-5.937v-83.281c0-2.662-1.709-4.898-4.062-5.656v-1.187a5.89 5.89 0 0 0 4.188-5.656v-57.062c0-3.289-2.649-5.937-5.937-5.937z"/><path id="H" d="M731.989 609.19c-3.289 0-5.937 2.649-5.937 5.938v57.063a5.91 5.91 0 0 0 4.219 5.688v1.156c-2.368.749-4.094 2.984-4.094 5.656v83.281c0 3.289 2.594 5.938 5.813 5.938s5.813-2.649 5.813-5.937V684.69c0-2.662-1.709-4.898-4.062-5.656v-1.187a5.89 5.89 0 0 0 4.188-5.656v-57.062c0-3.289-2.649-5.937-5.937-5.937z"/><path id="I" d="M658.273 522.829l-9.643 26.222-9.643-26.222c5.693 4.189 13.482 4.165 19.285 0z"/><path id="J" d="M241.559 118.956v6.41h3.797c1.273 0 2.217-.264 2.83-.791s.92-1.334.92-2.42c0-1.094-.307-1.9-.92-2.42s-1.557-.779-2.83-.779zm0-7.195v5.273h3.504c1.156 0 2.018-.217 2.584-.65s.85-1.096.85-1.986c0-.883-.283-1.543-.85-1.98s-1.428-.656-2.584-.656zm-2.367-1.945h6.047c1.805 0 3.195.375 4.172 1.125s1.465 1.816 1.465 3.199c0 1.07-.25 1.922-.75 2.555s-1.234 1.027-2.203 1.184c1.164.25 2.068.771 2.713 1.564s.967 1.783.967 2.971c0 1.563-.531 2.77-1.594 3.621s-2.574 1.277-4.535 1.277h-6.281z"/><path id="K" d="M255.551 109.077h2.156v18.234h-2.156z"/><path id="L" d="M267.293 115.699c-1.156 0-2.07.451-2.742 1.354s-1.008 2.139-1.008 3.709.334 2.807 1.002 3.709 1.584 1.354 2.748 1.354c1.148 0 2.059-.453 2.73-1.359s1.008-2.141 1.008-3.703c0-1.555-.336-2.787-1.008-3.697s-1.582-1.365-2.73-1.365zm0-1.828c1.875 0 3.348.609 4.418 1.828s1.605 2.906 1.605 5.063c0 2.148-.535 3.834-1.605 5.057s-2.543 1.834-4.418 1.834c-1.883 0-3.357-.611-4.424-1.834s-1.6-2.908-1.6-5.057c0-2.156.533-3.844 1.6-5.062s2.541-1.828 4.424-1.828z"/><path id="M" d="M300.188 116.179v-7.102h2.156v18.234h-2.156v-1.969c-.453.781-1.025 1.361-1.717 1.74s-1.522.568-2.49.568c-1.586 0-2.877-.633-3.873-1.898s-1.494-2.93-1.494-4.992.498-3.727 1.494-4.992 2.287-1.898 3.873-1.898c.969 0 1.799.189 2.49.568s1.264.959 1.717 1.74zm-7.348 4.582c0 1.586.326 2.83.979 3.732s1.549 1.354 2.689 1.354 2.039-.451 2.695-1.354.984-2.146.984-3.732-.328-2.83-.984-3.732a3.15 3.15 0 0 0-2.695-1.354c-1.141 0-2.037.451-2.689 1.354s-.979 2.146-.979 3.732z"/><path id="N" d="M329.309 128.531c-.609 1.562-1.203 2.582-1.781 3.059s-1.352.715-2.32.715h-1.723v-1.805h1.266c.594 0 1.055-.141 1.383-.422s.691-.945 1.09-1.992l.387-.984-5.309-12.914h2.285l4.102 10.266 4.102-10.266h2.285z"/><path id="O" d="M340.137 125.343v6.961h-2.168v-18.117h2.168v1.992c.453-.781 1.025-1.361 1.717-1.74s1.518-.568 2.479-.568c1.594 0 2.889.633 3.885 1.898s1.494 2.93 1.494 4.992-.498 3.727-1.494 4.992-2.291 1.898-3.885 1.898c-.961 0-1.787-.189-2.479-.568s-1.264-.959-1.717-1.74zm7.336-4.582c0-1.586-.326-2.83-.979-3.732s-1.549-1.354-2.689-1.354-2.037.451-2.689 1.354-.979 2.146-.979 3.732.326 2.83.979 3.732 1.549 1.354 2.689 1.354 2.037-.451 2.689-1.354.979-2.146.979-3.732z"/><path id="P" d="M364.512 120.21v1.055h-9.914c.094 1.484.541 2.615 1.342 3.393s1.916 1.166 3.346 1.166c.828 0 1.631-.102 2.408-.305s1.549-.508 2.314-.914v2.039a12.93 12.93 0 0 1-2.379.75c-.813.172-1.637.258-2.473.258-2.094 0-3.752-.609-4.975-1.828s-1.834-2.867-1.834-4.945c0-2.148.58-3.854 1.74-5.115s2.725-1.893 4.693-1.893c1.766 0 3.162.568 4.189 1.705s1.541 2.682 1.541 4.635zm-2.156-.633c-.016-1.18-.346-2.121-.99-2.824s-1.498-1.055-2.561-1.055c-1.203 0-2.166.34-2.889 1.02s-1.139 1.637-1.248 2.871z"/><path id="Q" d="M381.633 112.148l-3.211 8.707h6.434zm-1.336-2.332h2.684l6.668 17.496h-2.461l-1.594-4.488h-7.887l-1.594 4.488h-2.496z"/><path id="R" d="M813.958 110.46v3.727h4.441v1.676h-4.441v7.125c0 1.07.146 1.758.439 2.063s.889.457 1.787.457h2.215v1.805h-2.215c-1.664 0-2.813-.311-3.445-.932s-.949-1.752-.949-3.393v-7.125h-1.582v-1.676h1.582v-3.727z"/><path id="S" d="M282.735 914.179v-7.102h2.156v18.234h-2.156v-1.969c-.453.781-1.025 1.361-1.717 1.74s-1.521.568-2.49.568c-1.586 0-2.877-.633-3.873-1.898s-1.494-2.93-1.494-4.992.498-3.727 1.494-4.992 2.287-1.898 3.873-1.898c.969 0 1.799.189 2.49.568s1.264.959 1.717 1.74zm-7.348 4.582c0 1.586.326 2.83.979 3.732s1.549 1.354 2.689 1.354 2.039-.451 2.695-1.354.984-2.146.984-3.732-.328-2.83-.984-3.732a3.15 3.15 0 0 0-2.695-1.354c-1.141 0-2.037.451-2.689 1.354s-.979 2.146-.979 3.732z"/><path id="T" d="M898.833 909.421c-1.719 0-3.084.641-4.096 1.922s-1.518 3.027-1.518 5.238c0 2.203.506 3.945 1.518 5.227s2.377 1.922 4.096 1.922 3.08-.641 4.084-1.922 1.506-3.023 1.506-5.227c0-2.211-.502-3.957-1.506-5.238s-2.365-1.922-4.084-1.922zm0-1.922c2.453 0 4.414.822 5.883 2.467s2.203 3.85 2.203 6.615c0 2.758-.734 4.959-2.203 6.604s-3.43 2.467-5.883 2.467c-2.461 0-4.428-.82-5.9-2.461s-2.209-3.844-2.209-6.609.736-4.971 2.209-6.615 3.439-2.467 5.9-2.467z"/><path id="U" d="M8.244 459.226h33.125v33.125H8.244v-33.125z"/><path id="V" d="M86.032 346.137c-1.742 0-2.949.199-3.621.598s-1.008 1.078-1.008 2.039c0 .766.252 1.373.756 1.822s1.189.674 2.057.674c1.195 0 2.154-.424 2.877-1.271s1.084-1.975 1.084-3.381v-.48zm4.301-.891v7.488h-2.156v-1.992c-.492.797-1.105 1.385-1.84 1.764s-1.633.568-2.695.568c-1.344 0-2.412-.377-3.205-1.131s-1.189-1.764-1.189-3.029c0-1.477.494-2.59 1.482-3.34s2.463-1.125 4.424-1.125h3.023v-.211c0-.992-.326-1.76-.979-2.303s-1.568-.814-2.748-.814a8.91 8.91 0 0 0-2.191.27c-.711.18-1.395.449-2.051.809v-1.992c.789-.305 1.555-.533 2.297-.686s1.465-.229 2.168-.229c1.898 0 3.316.492 4.254 1.477s1.406 2.477 1.406 4.477z"/><path id="W" d="M270.885 471.61h2.156v13.125h-2.156zm0-5.109h2.156v2.73h-2.156z"/><path id="X" d="M278.01 380.311v7.922h-2.156v-7.852c0-1.242-.242-2.172-.727-2.789s-1.211-.926-2.18-.926c-1.164 0-2.082.371-2.754 1.113s-1.008 1.754-1.008 3.035v7.418h-2.168v-13.125h2.168v2.039c.516-.789 1.123-1.379 1.822-1.77s1.506-.586 2.42-.586c1.508 0 2.648.467 3.422 1.4s1.16 2.307 1.16 4.119z"/></defs></svg>