<svg xmlns="http://www.w3.org/2000/svg" width="796" height="555.243" overflow="visible" xmlns:v="https://vecta.io/nano"><style><![CDATA[.B{fill:none}.C{stroke-width:2}.D{stroke:#000}.E{font-family:Myriad-Roman}.F{fill:#bd1a8d}.G{fill:#007070}.H{font-size:24px}.I{font-size:12px}.J{font-size:20.4px}.K{fill:#ea242a}.L{stroke-width:4}.M{fill:#df282b}.N{fill:#d62a2b}.O{fill:#ce2d2c}.P{fill:#c5302d}.Q{fill:#be322d}.R{fill:#b6332d}.S{fill:#ae342e}.T{fill:#a6352e}.U{fill:#9f362e}.V{fill:#98352e}.W{fill:#91362e}.X{fill:#89362e}.Y{fill:#83352e}.Z{fill:#7b342d}.a{fill:#75342d}.b{fill:#6e332d}.c{fill:#68332c}.d{fill:#62312c}.e{fill:#5c302b}.f{fill:#562f2b}.g{fill:#502e2a}.h{fill:#4a2c29}.i{fill:#452b28}.j{fill:#3f2927}.k{fill:#3a2826}.l{fill:#342625}.m{fill:#2f2423}.n{fill:#292122}.o{fill:#231f20}]]></style><path d="M782.771 329.965l-.511 1.933-13.133-3.676.506-1.936zm-5.819 23.665l.225 1.993-13.528 1.594-.219-1.991zm-6.614-43.853l-1.979 13.88-1.921-.287 1.975-13.883zm-2.875 17.433l.721 1.22-14.243 8.928-.72-1.222zm-2.07-3.711l.698 1.243-14.404 8.637-.698-1.233zm-2.365 30.716l-.975 1.016-11.808-12.126.982-1.016zm-3.551 18.944l.076-14.032 1.939.01-.076 14.032zm.616-15.924l-.961 1.033-12.025-11.892.961-1.035zm-5.695-56.57l1.371 1.427-9.695 9.855-1.364-1.427zm-8.623 12.22l.315 17.175-1.388.021-.316-17.172zm-3.912-2.56l-1.212 1.572-10.646-8.749 1.214-1.562zm-1.623 2.566h1.388v17.175h-1.388zm.621 33.649l-7.567 15.307-1.239-.651 7.569-15.307zm-8.367 16.008l5.63 12.771-1.77.829-5.631-12.773zm4.399-18.103l-7.285 15.453-1.249-.629 7.287-15.448zm-.893-11.42l-.564 1.307-15.216-7.021.572-1.307zm-1.889 4.172l-.592 1.296-15.079-7.324.593-1.291zm-6.439 22.762l.59 1.912-12.973 4.237-.59-1.912zm-12.086-47.975l4.516 13.238-1.835.666-4.516-13.24zm1.293 16.578l.861 1.792-12.216 6.199-.858-1.8z" class="F"/><g class="K"><ellipse transform="matrix(.7346 -.6785 .6785 .7346 -78.9767 186.1013)" cx="198.376" cy="193.994" rx="49.685" ry="48.733"/><ellipse transform="matrix(.7346 -.6786 .6786 .7346 -76.3491 188.0911)" cx="202.229" cy="191.629" rx="39.038" ry="43.463"/></g><ellipse transform="matrix(.7346 -.6786 .6786 .7346 -76.3391 188.0951)" cx="202.24" cy="191.619" rx="38.503" ry="42.676" class="M"/><ellipse transform="matrix(.7346 -.6785 .6785 .7346 -76.3289 188.099)" cx="202.252" cy="191.608" rx="37.967" ry="41.889" class="N"/><ellipse transform="matrix(.7346 -.6786 .6786 .7346 -76.3189 188.1053)" cx="202.263" cy="191.598" rx="37.432" ry="41.101" class="O"/><ellipse transform="matrix(.7346 -.6786 .6786 .7346 -76.3089 188.1105)" cx="202.274" cy="191.588" rx="36.897" ry="40.314" class="P"/><ellipse transform="matrix(.7346 -.6785 .6785 .7346 -76.2988 188.113)" cx="202.286" cy="191.577" rx="36.361" ry="39.527" class="Q"/><ellipse transform="matrix(.7346 -.6785 .6785 .7346 -76.2888 188.1168)" cx="202.297" cy="191.567" rx="35.826" ry="38.74" class="R"/><ellipse transform="matrix(.7346 -.6786 .6786 .7346 -76.2787 188.1246)" cx="202.308" cy="191.556" rx="35.291" ry="37.952" class="S"/><ellipse transform="matrix(.7346 -.6785 .6785 .7346 -76.2688 188.1284)" cx="202.319" cy="191.546" rx="34.755" ry="37.166" class="T"/><ellipse transform="matrix(.7346 -.6785 .6785 .7346 -76.2586 188.1322)" cx="202.331" cy="191.536" rx="34.22" ry="36.378" class="U"/><ellipse transform="matrix(.7346 -.6785 .6785 .7346 -76.2487 188.136)" cx="202.342" cy="191.525" rx="33.685" ry="35.591" class="V"/><ellipse transform="matrix(.7346 -.6786 .6786 .7346 -76.2386 188.1439)" cx="202.353" cy="191.515" rx="33.149" ry="34.804" class="W"/><ellipse transform="matrix(.7346 -.6785 .6785 .7346 -76.2285 188.1461)" cx="202.365" cy="191.504" rx="32.614" ry="34.017" class="X"/><ellipse transform="matrix(.7346 -.6785 .6785 .7346 -76.2185 188.1498)" cx="202.376" cy="191.494" rx="32.079" ry="33.23" class="Y"/><ellipse transform="matrix(.7346 -.6785 .6785 .7346 -76.2085 188.155)" cx="202.387" cy="191.484" rx="31.543" ry="32.443" class="Z"/><ellipse transform="matrix(.7346 -.6785 .6785 .7346 -76.1983 188.1599)" cx="202.398" cy="191.473" rx="31.008" ry="31.655" class="a"/><ellipse transform="matrix(.7346 -.6785 .6785 .7346 -76.1883 188.1652)" cx="202.41" cy="191.463" rx="30.472" ry="30.868" class="b"/><ellipse transform="matrix(.7346 -.6785 .6785 .7346 -76.1784 188.1688)" cx="202.421" cy="191.453" rx="29.937" ry="30.081" class="c"/><ellipse transform="matrix(.7346 -.6785 .6785 .7346 -76.1682 188.1705)" cx="202.432" cy="191.442" rx="29.402" ry="29.294" class="d"/><ellipse transform="matrix(.7346 -.6785 .6785 .7346 -76.1581 188.1789)" cx="202.443" cy="191.432" rx="28.866" ry="28.507" class="e"/><ellipse transform="matrix(.7346 -.6785 .6785 .7346 -76.1482 188.1824)" cx="202.455" cy="191.421" rx="28.331" ry="27.719" class="f"/><ellipse transform="matrix(.7346 -.6785 .6785 .7346 -76.138 188.1858)" cx="202.466" cy="191.411" rx="27.795" ry="26.932" class="g"/><ellipse transform="matrix(.7346 -.6785 .6785 .7346 -76.1281 188.1892)" cx="202.477" cy="191.401" rx="27.26" ry="26.145" class="h"/><ellipse transform="matrix(.7346 -.6785 .6785 .7346 -76.118 188.1978)" cx="202.489" cy="191.39" rx="26.725" ry="25.358" class="i"/><ellipse transform="matrix(.7346 -.6785 .6785 .7346 -76.1081 188.2012)" cx="202.5" cy="191.38" rx="26.19" ry="24.571" class="j"/><ellipse transform="matrix(.7346 -.6785 .6785 .7346 -76.0979 188.2025)" cx="202.511" cy="191.369" rx="25.654" ry="23.784" class="k"/><ellipse transform="matrix(.7346 -.6785 .6785 .7346 -76.0879 188.2076)" cx="202.522" cy="191.359" rx="25.119" ry="22.997" class="l"/><ellipse transform="matrix(.7346 -.6785 .6785 .7346 -76.0779 188.2145)" cx="202.533" cy="191.349" rx="24.584" ry="22.209" class="m"/><ellipse transform="matrix(.7346 -.6785 .6785 .7346 -76.0677 188.2176)" cx="202.545" cy="191.338" rx="24.048" ry="21.422" class="n"/><ellipse transform="matrix(.7346 -.6785 .6785 .7346 -76.0577 188.2207)" cx="202.556" cy="191.328" rx="23.513" ry="20.635" class="o"/><g class="D"><path d="M168.478 155.539l-7.07-8.485" class="B C"/><ellipse cx="157.754" cy="142.341" rx="5.774" ry="5.656" class="F"/><path d="M186.665 146.737l-2.714-10.706" class="B C"/><ellipse transform="matrix(-.902 -.4317 .4317 -.902 291.2712 326.5159)" cx="182.691" cy="130.203" rx="5.774" ry="5.656" class="F"/><path d="M209.878 145.871l1.968-10.868" class="B C"/><ellipse transform="matrix(-.6419 -.7668 .7668 -.6419 250.8607 375.5098)" cx="213.115" cy="129.177" rx="5.774" ry="5.656" class="F"/><path d="M228.902 154.979l4.913-9.892" class="B C"/><ellipse transform="matrix(-.4033 -.9151 .9151 -.4033 204.1376 412.7974)" cx="236.654" cy="139.843" rx="5.774" ry="5.656" class="F"/><path d="M155.954 170.46l-9.854-4.986" class="B C"/><ellipse transform="matrix(-.9181 .3964 -.3964 -.9181 334.6696 256.0195)" cx="140.877" cy="162.595" rx="5.774" ry="5.657" class="F"/><path d="M149.598 188.811l-10.996-1.037" class="B C"/><ellipse transform="matrix(-.7094 .7048 -.7048 -.7094 358.6184 226.1618)" cx="132.689" cy="187.005" rx="5.774" ry="5.656" class="F"/><path d="M242.584 171.813l9.576-5.504" class="B C"/><ellipse transform="matrix(.1722 -.9851 .9851 .1722 52.0282 388.9553)" cx="257.432" cy="163.522" rx="5.774" ry="5.657" class="F"/><path d="M194.46 243.049l-.344 11.04" class="B C"/><ellipse transform="matrix(.7479 .6638 -.6638 .7479 221.4412 -63.0389)" cx="193.72" cy="260.038" rx="5.774" ry="5.657" class="F"/><path d="M162.07 227.554l-7.256 8.326" class="B C"/><ellipse transform="matrix(.1586 .9873 -.9873 .1586 364.0186 53.2917)" cx="150.74" cy="240.235" rx="5.774" ry="5.657" class="F"/><path d="M230.515 230.836l7.148 8.419" class="B C"/><ellipse transform="matrix(1 -.0092 .0092 1 -2.2383 2.2352)" cx="241.36" cy="243.935" rx="5.774" ry="5.656" class="F"/><path d="M247.228 195.253l11.01.857" class="B C"/><ellipse transform="matrix(.6979 -.7162 .7162 .6979 -61.1276 248.6634)" cx="264.164" cy="196.783" rx="5.774" ry="5.656" class="F"/><path d="M150.883 207.756l-9.981 4.727" class="B C"/><ellipse transform="matrix(-.2497 .9683 -.9683 -.2497 377.2822 137.3634)" cx="135.425" cy="214.844" rx="5.774" ry="5.656" class="F"/><path d="M243.127 214.265l10.104 4.46" class="B C"/><ellipse transform="matrix(.8959 -.4443 .4443 .8959 -71.4088 137.9407)" cx="258.598" cy="221.324" rx="5.774" ry="5.656" class="F"/><path d="M176.559 238.354l-4.487 10.092" class="B C"/><ellipse transform="matrix(.4419 .8971 -.8971 .4419 322.2657 -10.3587)" cx="169.458" cy="253.806" rx="5.774" ry="5.656" class="F"/><path d="M211.257 240.907l4.823 9.936" class="B C"/><ellipse transform="matrix(.9707 .2404 -.2404 .9707 68.0291 -45.0135)" cx="218.493" cy="256.296" rx="5.774" ry="5.656" class="F"/></g><g class="K"><ellipse transform="matrix(.7346 -.6785 .6785 .7346 5.5482 403.4361)" cx="518.423" cy="194.627" rx="49.686" ry="48.733"/><ellipse transform="matrix(.7345 -.6786 .6786 .7345 8.1807 405.4355)" cx="522.277" cy="192.262" rx="39.038" ry="43.463"/></g><ellipse transform="matrix(.7345 -.6786 .6786 .7345 8.1899 405.4387)" cx="522.288" cy="192.252" rx="38.503" ry="42.676" class="M"/><ellipse transform="matrix(.7345 -.6786 .6786 .7345 8.1984 405.4394)" cx="522.299" cy="192.241" rx="37.968" ry="41.888" class="N"/><ellipse transform="matrix(.7345 -.6786 .6786 .7345 8.2108 405.4498)" cx="522.311" cy="192.231" rx="37.432" ry="41.102" class="O"/><ellipse transform="matrix(.7345 -.6786 .6786 .7345 8.22 405.453)" cx="522.322" cy="192.22" rx="36.897" ry="40.314" class="P"/><ellipse transform="matrix(.7345 -.6786 .6786 .7345 8.2301 405.4578)" cx="522.333" cy="192.21" rx="36.361" ry="39.527" class="Q"/><ellipse transform="matrix(.7345 -.6786 .6786 .7345 8.2393 405.4609)" cx="522.344" cy="192.2" rx="35.826" ry="38.739" class="R"/><ellipse transform="matrix(.7345 -.6786 .6786 .7345 8.2506 405.4691)" cx="522.356" cy="192.189" rx="35.29" ry="37.953" class="S"/><ellipse transform="matrix(.7345 -.6786 .6786 .7345 8.261 405.4747)" cx="522.367" cy="192.179" rx="34.755" ry="37.166" class="T"/><ellipse transform="matrix(.7345 -.6786 .6786 .7345 8.2692 405.475)" cx="522.378" cy="192.168" rx="34.22" ry="36.379" class="U"/><ellipse transform="matrix(.7346 -.6786 .6786 .7346 8.2783 405.4779)" cx="522.39" cy="192.158" rx="33.685" ry="35.591" class="V"/><ellipse transform="matrix(.7345 -.6786 .6786 .7345 8.2897 405.4862)" cx="522.401" cy="192.148" rx="33.149" ry="34.805" class="W"/><ellipse transform="matrix(.7346 -.6786 .6786 .7346 8.2978 405.4862)" cx="522.413" cy="192.137" rx="32.614" ry="34.017" class="X"/><ellipse transform="matrix(.7346 -.6786 .6786 .7346 8.3082 405.4918)" cx="522.424" cy="192.127" rx="32.079" ry="33.23" class="Y"/><ellipse transform="matrix(.7346 -.6785 .6785 .7346 8.3172 405.4944)" cx="522.435" cy="192.117" rx="31.543" ry="32.443" class="Z"/><ellipse transform="matrix(.7345 -.6786 .6786 .7345 8.3298 405.5051)" cx="522.446" cy="192.106" rx="31.007" ry="31.656" class="a"/><ellipse transform="matrix(.7345 -.6786 .6786 .7345 8.3388 405.5078)" cx="522.458" cy="192.096" rx="30.472" ry="30.868" class="b"/><ellipse transform="matrix(.7345 -.6786 .6786 .7345 8.3492 405.5135)" cx="522.469" cy="192.085" rx="29.937" ry="30.081" class="c"/><ellipse transform="matrix(.7346 -.6785 .6785 .7346 8.3571 405.5129)" cx="522.48" cy="192.075" rx="29.402" ry="29.293" class="d"/><ellipse transform="matrix(.7346 -.6786 .6786 .7346 8.3686 405.5216)" cx="522.492" cy="192.065" rx="28.866" ry="28.507" class="e"/><ellipse transform="matrix(.7346 -.6785 .6785 .7346 8.3775 405.5241)" cx="522.503" cy="192.054" rx="28.331" ry="27.72" class="f"/><ellipse transform="matrix(.7346 -.6785 .6785 .7346 8.3853 405.5231)" cx="522.514" cy="192.044" rx="27.795" ry="26.933" class="g"/><ellipse transform="matrix(.7346 -.6785 .6785 .7346 8.3956 405.5287)" cx="522.525" cy="192.033" rx="27.26" ry="26.145" class="h"/><ellipse transform="matrix(.7346 -.6785 .6785 .7346 8.4072 405.5376)" cx="522.537" cy="192.023" rx="26.725" ry="25.359" class="i"/><ellipse transform="matrix(.7346 -.6785 .6785 .7346 8.416 405.5398)" cx="522.548" cy="192.013" rx="26.19" ry="24.571" class="j"/><ellipse transform="matrix(.7346 -.6785 .6785 .7346 8.4261 405.5446)" cx="522.559" cy="192.002" rx="25.654" ry="23.784" class="k"/><ellipse transform="matrix(.7346 -.6785 .6785 .7346 8.4349 405.5466)" cx="522.57" cy="191.992" rx="25.119" ry="22.997" class="l"/><ellipse transform="matrix(.7346 -.6786 .6786 .7346 8.4484 405.5595)" cx="522.582" cy="191.982" rx="24.583" ry="22.21" class="m"/><ellipse transform="matrix(.7346 -.6785 .6785 .7346 8.4557 405.5576)" cx="522.593" cy="191.971" rx="24.048" ry="21.422" class="n"/><ellipse transform="matrix(.7346 -.6785 .6785 .7346 8.4643 405.5594)" cx="522.604" cy="191.961" rx="23.512" ry="20.635" class="o"/><path d="M553.313 158.99l8.68-10.948" class="B C D"/><path d="M560.654 149.444l-1.571-10.802 10.804-1.571 1.571 10.802z" class="G"/><path d="M566.179 205.978l13.215 4.532" class="B C D"/><path d="M577.619 209.705l9.662-5.083 5.083 9.662-9.662 5.083z" class="G"/><path d="M519.399 145.737l.098-13.972" class="B C D"/><path d="M519.306 133.726l-7.89-7.545 7.545-7.89 7.89 7.545z" class="G"/><path d="M470.074 188.191l-13.119-4.805" class="B C D"/><path d="M458.731 184.238l-9.764 4.882-4.883-9.765 9.764-4.882z" class="G"/><path d="M486.937 232.495l-8.348 11.204" class="B C D"/><path d="M479.899 242.242l1.895 10.751-10.75 1.895-1.895-10.751z" class="G"/><path d="M534.766 240.632l4.42 13.254" class="B C D"/><path d="M538.755 251.945l9.904 4.592-4.592 9.904-9.904-4.592z" class="G"/><g class="D"><path d="M565.414 179.175l9.768-5.154" class="B C"/><ellipse transform="matrix(.2077 -.9782 .9782 .2077 292.2839 703.7134)" cx="580.552" cy="171.427" rx="5.774" ry="5.656" class="F"/><path d="M555.703 225.796l9.533 5.575" class="B C"/><ellipse transform="matrix(.9404 -.34 .34 .9404 -45.7768 207.8591)" cx="570.275" cy="234.562" rx="5.774" ry="5.656" class="F"/><path d="M511.161 243.208l-1.028 10.997" class="B C"/><ellipse transform="matrix(.7053 .7089 -.7089 .7053 334.4897 -284.431)" cx="509.368" cy="260.12" rx="5.774" ry="5.656" class="F"/><path d="M471.978 211.481l-9.963 4.764" class="B C"/><ellipse transform="matrix(-.2463 .9692 -.9692 -.2463 780.8923 -170.0002)" cx="456.545" cy="218.625" rx="5.774" ry="5.655" class="F"/><path d="M486.104 158.305l-7.642-7.972" class="B C"/><ellipse transform="matrix(-.9976 .0694 -.0694 -.9976 957.9628 258.4736)" cx="474.49" cy="145.884" rx="5.774" ry="5.656" class="F"/></g><ellipse transform="matrix(.7346 -.6785 .6785 .7346 -36.6656 294.9265)" cx="358.623" cy="194.327" rx="49.686" ry="48.733" class="K"/><path d="M324.173 160.32l-8.718-10.918" class="B C D"/><path d="M316.53 151.044l-10.88-.895.895-10.881 10.88.895z" class="G"/><path d="M392.871 158.69l8.679-10.948" class="B C D"/><path d="M400.205 149.145l-1.571-10.802 10.803-1.571 1.571 10.802z" class="G"/><path d="M405.949 205.678l13.215 4.532" class="B C D"/><path d="M417.369 209.379l9.66-5.084 5.084 9.66-9.66 5.084z" class="G"/><path d="M406.426 183.194l13.431-3.847" class="B C D"/><path d="M417.921 179.673l5.012-9.7 9.699 5.012-5.012 9.7z" class="G"/><path d="M359.171 145.222l.098-13.972" class="B C D"/><path d="M359.046 133.191l-7.892-7.545 7.545-7.891 7.892 7.545z" class="G"/><path d="M310.274 187.892l-13.119-4.806" class="B C D"/><path d="M298.926 183.933l-9.764 4.882-4.883-9.765 9.764-4.882z" class="G"/><path d="M327.137 232.195l-8.348 11.204" class="B C D"/><path d="M320.101 241.943l1.895 10.751-10.751 1.895-1.895-10.751z" class="G"/><path d="M394.122 227.334l10.356 9.378" class="B C D"/><path d="M403.177 235.25l10.883-.86.86 10.883-10.883.86z" class="G"/><path d="M375.18 240.118l4.42 13.254" class="B C D"/><path d="M379.173 251.439l9.904 4.592-4.592 9.904-9.904-4.592z" class="G"/><path d="M312.875 214.021l-12.566 6.106" class="B C D"/><path d="M302.15 219.448l-3.265 10.416-10.416-3.265 3.265-10.416z" class="G"/><path d="M349.216 242.545l-2.947 13.657" class="B C D"/><path d="M346.879 254.355l6.184 8.997-8.997 6.184-6.184-8.997z" class="G"/><ellipse transform="matrix(.7345 -.6786 .6786 .7345 -34.0363 296.9197)" cx="362.477" cy="191.962" rx="39.038" ry="43.462" class="K"/><ellipse transform="matrix(.7345 -.6786 .6786 .7345 -34.0267 296.9233)" cx="362.488" cy="191.952" rx="38.503" ry="42.675" class="M"/><ellipse transform="matrix(.7345 -.6786 .6786 .7345 -34.0169 296.9268)" cx="362.5" cy="191.941" rx="37.967" ry="41.888" class="N"/><ellipse transform="matrix(.7345 -.6786 .6786 .7345 -34.0063 296.9337)" cx="362.511" cy="191.931" rx="37.432" ry="41.1" class="O"/><ellipse transform="matrix(.7345 -.6786 .6786 .7345 -33.9962 296.9392)" cx="362.522" cy="191.92" rx="36.897" ry="40.313" class="P"/><ellipse transform="matrix(.7345 -.6786 .6786 .7345 -33.9866 296.9427)" cx="362.533" cy="191.91" rx="36.361" ry="39.526" class="Q"/><ellipse transform="matrix(.7346 -.6786 .6786 .7346 -33.9774 296.9442)" cx="362.545" cy="191.9" rx="35.826" ry="38.739" class="R"/><ellipse transform="matrix(.7346 -.6786 .6786 .7346 -33.9673 296.9496)" cx="362.556" cy="191.889" rx="35.291" ry="37.952" class="S"/><ellipse transform="matrix(.7345 -.6786 .6786 .7345 -33.9566 296.9566)" cx="362.567" cy="191.879" rx="34.755" ry="37.165" class="T"/><ellipse transform="matrix(.7345 -.6786 .6786 .7345 -33.9465 296.9622)" cx="362.579" cy="191.869" rx="34.22" ry="36.378" class="U"/><ellipse transform="matrix(.7346 -.6786 .6786 .7346 -33.9374 296.9633)" cx="362.59" cy="191.858" rx="33.685" ry="35.591" class="V"/><ellipse transform="matrix(.7346 -.6786 .6786 .7346 -33.9273 296.9688)" cx="362.601" cy="191.848" rx="33.149" ry="34.804" class="W"/><ellipse transform="matrix(.7346 -.6785 .6785 .7346 -33.9178 296.972)" cx="362.613" cy="191.838" rx="32.614" ry="34.017" class="X"/><ellipse transform="matrix(.7346 -.6785 .6785 .7346 -33.9075 296.977)" cx="362.624" cy="191.827" rx="32.079" ry="33.229" class="Y"/><ellipse transform="matrix(.7346 -.6785 .6785 .7346 -33.8974 296.9824)" cx="362.635" cy="191.817" rx="31.543" ry="32.442" class="Z"/><ellipse transform="matrix(.7346 -.6785 .6785 .7346 -33.8879 296.9856)" cx="362.646" cy="191.806" rx="31.008" ry="31.655" class="a"/><ellipse transform="matrix(.7346 -.6785 .6785 .7346 -33.8778 296.991)" cx="362.658" cy="191.796" rx="30.472" ry="30.868" class="b"/><ellipse transform="matrix(.7346 -.6785 .6785 .7346 -33.8675 296.996)" cx="362.669" cy="191.785" rx="29.937" ry="30.08" class="c"/><ellipse transform="matrix(.7346 -.6785 .6785 .7346 -33.8581 296.9991)" cx="362.68" cy="191.775" rx="29.402" ry="29.293" class="d"/><ellipse transform="matrix(.7346 -.6785 .6785 .7346 -33.8479 297.0045)" cx="362.691" cy="191.765" rx="28.866" ry="28.506" class="e"/><ellipse transform="matrix(.7346 -.6785 .6785 .7346 -33.839 297.0049)" cx="362.703" cy="191.754" rx="28.331" ry="27.719" class="f"/><ellipse transform="matrix(.7346 -.6785 .6785 .7346 -33.8289 297.0103)" cx="362.714" cy="191.744" rx="27.796" ry="26.932" class="g"/><ellipse transform="matrix(.7346 -.6785 .6785 .7346 -33.8181 297.0179)" cx="362.725" cy="191.734" rx="27.26" ry="26.145" class="h"/><ellipse transform="matrix(.7346 -.6785 .6785 .7346 -33.808 297.0233)" cx="362.737" cy="191.723" rx="26.725" ry="25.358" class="i"/><ellipse transform="matrix(.7346 -.6785 .6785 .7346 -33.7992 297.0233)" cx="362.748" cy="191.713" rx="26.19" ry="24.571" class="j"/><ellipse transform="matrix(.7346 -.6785 .6785 .7346 -33.7899 297.0259)" cx="362.759" cy="191.703" rx="25.654" ry="23.784" class="k"/><ellipse transform="matrix(.7346 -.6785 .6785 .7346 -33.7798 297.0313)" cx="362.771" cy="191.692" rx="25.119" ry="22.997" class="l"/><ellipse transform="matrix(.7346 -.6785 .6785 .7346 -33.7689 297.0391)" cx="362.781" cy="191.682" rx="24.584" ry="22.209" class="m"/><ellipse transform="matrix(.7346 -.6785 .6785 .7346 -33.7594 297.0414)" cx="362.793" cy="191.671" rx="24.048" ry="21.422" class="n"/><ellipse transform="matrix(.7346 -.6785 .6785 .7346 -33.7502 297.0439)" cx="362.804" cy="191.661" rx="23.513" ry="20.635" class="o"/><g class="K"><ellipse transform="matrix(.7346 -.6785 .6785 .7346 52.8707 522.4126)" cx="694.15" cy="193.63" rx="49.685" ry="48.734"/><ellipse transform="matrix(.7345 -.6786 .6786 .7345 55.502 524.4066)" cx="698.003" cy="191.265" rx="39.038" ry="43.463"/></g><ellipse transform="matrix(.7346 -.6786 .6786 .7346 55.5108 524.4094)" cx="698.015" cy="191.255" rx="38.503" ry="42.676" class="M"/><ellipse transform="matrix(.7346 -.6785 .6785 .7346 55.5181 524.4089)" cx="698.026" cy="191.245" rx="37.967" ry="41.889" class="N"/><ellipse transform="matrix(.7345 -.6786 .6786 .7345 55.5317 524.4205)" cx="698.038" cy="191.234" rx="37.432" ry="41.102" class="O"/><ellipse transform="matrix(.7346 -.6786 .6786 .7346 55.5405 524.4232)" cx="698.049" cy="191.224" rx="36.897" ry="40.314" class="P"/><ellipse transform="matrix(.7346 -.6786 .6786 .7346 55.5507 524.428)" cx="698.06" cy="191.213" rx="36.361" ry="39.527" class="Q"/><ellipse transform="matrix(.7346 -.6786 .6786 .7346 55.5593 524.4305)" cx="698.071" cy="191.203" rx="35.826" ry="38.74" class="R"/><ellipse transform="matrix(.7346 -.6786 .6786 .7346 55.5699 524.4362)" cx="698.082" cy="191.193" rx="35.291" ry="37.953" class="S"/><ellipse transform="matrix(.7345 -.6786 .6786 .7345 55.5818 524.4451)" cx="698.094" cy="191.182" rx="34.755" ry="37.166" class="T"/><ellipse transform="matrix(.7346 -.6785 .6785 .7346 55.589 524.4441)" cx="698.105" cy="191.172" rx="34.22" ry="36.379" class="U"/><ellipse transform="matrix(.7346 -.6785 .6785 .7346 55.5975 524.4464)" cx="698.116" cy="191.162" rx="33.684" ry="35.591" class="V"/><ellipse transform="matrix(.7346 -.6785 .6785 .7346 55.6081 524.4521)" cx="698.127" cy="191.151" rx="33.149" ry="34.804" class="W"/><ellipse transform="matrix(.7346 -.6785 .6785 .7346 55.6149 524.4507)" cx="698.139" cy="191.141" rx="32.614" ry="34.017" class="X"/><ellipse transform="matrix(.7346 -.6785 .6785 .7346 55.627 524.4597)" cx="698.15" cy="191.13" rx="32.078" ry="33.23" class="Y"/><ellipse transform="matrix(.7346 -.6785 .6785 .7346 55.6354 524.4618)" cx="698.162" cy="191.12" rx="31.543" ry="32.443" class="Z"/><ellipse transform="matrix(.7346 -.6785 .6785 .7346 55.6476 524.4702)" cx="698.172" cy="191.109" rx="31.008" ry="31.655" class="a"/><ellipse transform="matrix(.7346 -.6785 .6785 .7346 55.6561 524.4722)" cx="698.184" cy="191.099" rx="30.472" ry="30.868" class="b"/><ellipse transform="matrix(.7346 -.6785 .6785 .7346 55.6683 524.4815)" cx="698.195" cy="191.089" rx="29.937" ry="30.081" class="c"/><ellipse transform="matrix(.7346 -.6785 .6785 .7346 55.6748 524.4794)" cx="698.207" cy="191.078" rx="29.401" ry="29.294" class="d"/><ellipse transform="matrix(.7346 -.6785 .6785 .7346 55.6854 524.4851)" cx="698.218" cy="191.068" rx="28.866" ry="28.507" class="e"/><ellipse transform="matrix(.7346 -.6785 .6785 .7346 55.6936 524.4868)" cx="698.229" cy="191.058" rx="28.331" ry="27.719" class="f"/><ellipse transform="matrix(.7346 -.6785 .6785 .7346 55.6998 524.4841)" cx="698.24" cy="191.047" rx="27.796" ry="26.932" class="g"/><ellipse transform="matrix(.7346 -.6785 .6785 .7346 55.7121 524.4936)" cx="698.252" cy="191.037" rx="27.26" ry="26.146" class="h"/><ellipse transform="matrix(.7346 -.6785 .6785 .7346 55.7225 524.4991)" cx="698.263" cy="191.026" rx="26.725" ry="25.359" class="i"/><ellipse transform="matrix(.7346 -.6785 .6785 .7346 55.7307 524.5005)" cx="698.274" cy="191.016" rx="26.19" ry="24.571" class="j"/><ellipse transform="matrix(.7346 -.6785 .6785 .7346 55.7407 524.505)" cx="698.285" cy="191.006" rx="25.654" ry="23.784" class="k"/><ellipse transform="matrix(.7346 -.6785 .6785 .7346 55.7486 524.5061)" cx="698.296" cy="190.995" rx="25.119" ry="22.996" class="l"/><ellipse transform="matrix(.7346 -.6785 .6785 .7346 55.7637 524.5207)" cx="698.308" cy="190.985" rx="24.583" ry="22.21" class="m"/><ellipse transform="matrix(.7346 -.6785 .6785 .7346 55.7693 524.5168)" cx="698.319" cy="190.974" rx="24.048" ry="21.422" class="n"/><ellipse transform="matrix(.7346 -.6785 .6785 .7346 55.7771 524.5176)" cx="698.331" cy="190.964" rx="23.513" ry="20.635" class="o"/><path d="M674.903 148.658l-4.533-9.067m-11.928 20.921l-7.083-7.367m-2.714 22.456l-8.783-4.25m5.146 21.981l-9.368-.283m11.826 17.147l-9.258 1.927m16.149 11.59l-7.649 6.8m20.15 4.643l-5.26 8.673m18.19-2.999l-2.583 9.049m17.34-6.844l.283 9.477m16.997-13.122l2.573 9.628m7.914-15.617l4.533 7.367m5.95-17l6.581 4.716m.721-17.802l6.793 3.361m-3.658-17.621l7.861.566m-8.71-14.908l7.055-1.505m-11.902-11.377l6.357-4.167m-13.721-5.936l5.777-4.881m-14.771-2.13l4.552-6.251m-15.312.993l3.155-7.863m-19.595 5.188v-7.327" class="B C D"/><path d="M695.789 329.965l-.522 1.933-13.419-3.676.516-1.936zm-5.946 23.665l.229 1.994-13.821 1.593-.225-1.991zm-6.758-43.853l-2.022 13.88-1.962-.287 2.018-13.883zm-2.938 17.433l.737 1.22-14.553 8.928-.736-1.221zm-2.115-3.711l.713 1.243-14.717 8.637-.713-1.233zm-2.415 30.716l-.998 1.016-12.063-12.126 1.002-1.016zm-1.554 4.943l-.079 14.032-1.981-.009.073-14.034zm-1.447-1.923l-.981 1.033-12.286-11.892.981-1.035zm-5.817-56.57l1.399 1.427-9.904 9.855-1.395-1.426zm-8.811 12.22l.322 17.176-1.418.02-.325-17.172zm-3.998-2.56l-1.237 1.572-10.879-8.749 1.24-1.562zm-1.658 2.566h1.418v17.175h-1.418zm.635 33.649l-7.733 15.308-1.265-.652 7.734-15.307zm-8.549 16.008l5.752 12.771-1.81.829-5.753-12.773zm4.493-18.102l-7.441 15.452-1.278-.629 7.445-15.448zM648 333.025l-.577 1.307-15.547-7.021.585-1.307zm-1.93 4.172l-.605 1.296-15.406-7.324.605-1.291zm-6.58 22.762l.604 1.912-13.255 4.237-.604-1.912zm-12.348-47.872l4.614 13.237-1.875.667-4.614-13.24zm1.321 16.475l.88 1.793-12.482 6.198-.878-1.799z" class="G"/><text transform="translate(190.726 198.244)" fill="#fff" class="E J">A</text><text transform="translate(353.656 198.128)" fill="#fff" class="E J">B</text><text transform="translate(509.206 200.128)" fill="#fff" class="E J">AB</text><text x="472.917" y="408.291" class="E J">Nessuno</text><text x="327.178" y="408.291" class="E J">Anti-A</text><text x="165.67" y="408.5" class="E J">Anti-B</text><text x="622.333" y="408.85" class="E J">Anti-A e Anti-B</text><path d="M5 103.025h786" class="D L"/><text x="137.089" y="53.385" class="E H">Gruppo A</text><text x="299.726" y="50.567" class="E H">Gruppo B</text><text x="457.317" y="54.794" class="E H">Gruppo AB</text><text x="641.135" y="50.567" class="E H">Gruppo O</text><text x="9.818" y="138.157" class="I"><tspan x="9.818" y="166.957" class="E H">Tipi di </tspan></text><text x="7" y="169.161" class="I"><tspan x="7" y="197.961" class="E H">GLOBULI</tspan></text><text x="7" y="193.118" class="I"><tspan x="7" y="221.918" class="E H">ROSSI</tspan></text><path d="M236.716 330.568l-.523 1.934-13.419-3.677.515-1.933zm-5.948 23.665l.229 1.996-13.821 1.591-.225-1.991zm-6.759-43.852l-2.021 13.88-1.961-.287 2.019-13.883zm-2.935 17.432l.737 1.22-14.555 8.929-.737-1.22zm-2.115-3.71l.713 1.243-14.717 8.638-.713-1.232zm-2.415 30.717l-1 1.017-12.062-12.126 1-1.017zm-1.554 4.942l-.081 14.032-1.979-.008.073-14.035zm-1.449-1.923l-.979 1.032-12.289-11.892.982-1.035zm-5.815-56.571l1.399 1.427-9.904 9.856-1.395-1.425zm-8.811 12.22l.321 17.178-1.418.019-.326-17.17zm-4-2.559l-1.235 1.572-10.881-8.75 1.24-1.562zm-1.658 2.565h1.418v17.175h-1.418zm.637 33.652l-7.735 15.307-1.263-.653 7.734-15.308zm-8.549 16.005l5.75 12.774-1.81.827-5.753-12.772zm4.491-18.099l-7.44 15.452-1.279-.632 7.445-15.447zm-.911-11.423l-.577 1.307-15.545-7.022.585-1.307zm-1.93 4.172l-.603 1.296-15.407-7.325.606-1.291zm-6.578 22.763l.604 1.913-13.255 4.235-.603-1.912zm-12.349-47.874l4.615 13.238-1.875.669-4.615-13.243zm1.322 16.475l.88 1.796-12.482 6.197-.88-1.799z" class="G"/><path d="M396.771 329.965l-.511 1.932-13.134-3.676.506-1.936zm-5.819 23.664l.224 1.994-13.527 1.594-.219-1.991zm-6.615-43.853l-1.978 13.88-1.921-.287 1.975-13.882zm-2.875 17.434l.721 1.219-14.243 8.928-.72-1.221zm-2.069-3.711l.697 1.243-14.403 8.636-.698-1.232zm-2.365 30.715l-.976 1.016-11.807-12.126.982-1.016zm-1.52 4.943l-.077 14.033-1.939-.01.071-14.034zm-1.416-1.923l-.961 1.034-12.024-11.892.961-1.035zm-5.694-56.57l1.37 1.427-9.694 9.856-1.365-1.427zm-8.623 12.221l.315 17.175-1.388.02-.317-17.172zm-3.912-2.561l-1.212 1.572-10.647-8.749 1.215-1.562zm-1.623 2.566h1.388v17.175h-1.388zm.621 33.649l-7.568 15.308-1.239-.651 7.57-15.307zm-8.367 16.008l5.63 12.771-1.771.83-5.63-12.774zm4.398-18.102l-7.284 15.452-1.249-.629 7.286-15.447zm-.892-11.42l-.564 1.306-15.217-7.021.573-1.307zm-1.889 4.172l-.592 1.296-15.079-7.325.593-1.29zm-6.44 22.761l.591 1.912-12.973 4.238-.59-1.912zm-12.085-47.975l4.516 13.238-1.835.667-4.516-13.241zm1.293 16.578l.861 1.793-12.216 6.198-.858-1.799z" class="F"/><g class="B D L"><path d="M119.955-2.983l1.647 553.025M279 .025v553"/><path d="M2 278.025h792"/><path d="M438 4.025l-1 548m167-552v550"/></g><text x="8.818" y="351.481" class="I"><tspan x="8.818" y="351.481" class="E H">Anticorpi</tspan></text><text x="7.822" y="374.4" class="I"><tspan x="7.822" y="374.4" class="E H">presenti</tspan></text><path d="M-.818 430.434h792M791 103.025l3 449.846" class="B D L"/><text x="9.858" y="484.549" class="I"><tspan x="9.858" y="484.549" class="E H">Antigeni</tspan></text><text x="9.587" y="508.948" class="I"><tspan x="9.587" y="508.948" class="E H">presenti</tspan></text><g class="D"><path d="M2 102.025v453.218" class="B L"/><ellipse transform="matrix(-.7729 -.6346 .6346 -.7729 43.883993 976.59341)" cx="193.047" cy="474.605" rx="5.774" ry="5.657" class="F"/></g><text x="184.041" y="532.334" class="E H">A </text><ellipse transform="matrix(-.7728 -.6346 .6346 -.7728 588.46726 1185.338477)" cx="515.151" cy="476.256" rx="5.774" ry="5.657" class="D F"/><path d="M360.308 495.198l-7.731-7.707 7.707-7.731 7.731 7.707zm178.493 1.738l-7.731-7.707 7.707-7.731 7.731 7.707z" class="G"/><text x="348.352" y="536.853" class="E H">B </text><text x="483.833" y="532.337" class="I"><tspan x="483.833" y="532.337" class="E H">A e B</tspan></text><text x="650.706" y="491.375" class="E H">Nessuno</text><path d="M794 551.025l-792 2" class="B D L"/><text xml:space="preserve" x="690.409" y="198.879" font-size="20" writing-mode="lr-tb" fill="#fff" font-family="Verdana"><tspan x="690.409" y="198.879">O</tspan></text></svg>